<?xml version="1.0" encoding="us-ascii" standalone="no"?><svg xmlns="http://www.w3.org/2000/svg" xmlns:xlink="http://www.w3.org/1999/xlink" contentStyleType="text/css" height="669px" preserveAspectRatio="none" style="width:1259px;height:669px;background:#FFFFFF;" version="1.1" viewBox="0 0 1259 669" width="1259px" zoomAndPan="magnify"><defs/><g><text fill="#000000" font-family="Microsoft YaHei" font-size="14" font-weight="bold" lengthAdjust="spacing" textLength="126" x="559.5" y="24.8135">&#25945;&#23398;&#24179;&#21488;&#24635;&#20307;&#26550;&#26500;&#22270;</text><!--cluster ??????--><g id="cluster_&#23637;&#31034;&#19982;&#20132;&#20114;&#23618;"><rect fill="#F8FAFC" height="228" rx="2.5" ry="2.5" style="stroke:#64748B;stroke-width:1.0;" width="438" x="385" y="168.4775"/><text fill="#000000" font-family="Microsoft YaHei" font-size="14" font-weight="bold" lengthAdjust="spacing" textLength="84" x="562" y="185.291">&#23637;&#31034;&#19982;&#20132;&#20114;&#23618;</text></g><!--cluster ?????--><g id="cluster_&#21518;&#31471;&#24212;&#29992;&#23618;"><rect fill="#F8FAFC" height="110" rx="2.5" ry="2.5" style="stroke:#64748B;stroke-width:1.0;" width="1246" x="7" y="429.4775"/><text fill="#000000" font-family="Microsoft YaHei" font-size="14" font-weight="bold" lengthAdjust="spacing" textLength="70" x="595" y="446.291">&#21518;&#31471;&#24212;&#29992;&#23618;</text></g><!--entity TeacherUI--><g id="elem_TeacherUI"><rect fill="#F1F1F1" height="56.9551" rx="2.5" ry="2.5" style="stroke:#181818;stroke-width:0.5;" width="102" x="401" y="205.4775"/><text fill="#000000" font-family="Microsoft YaHei" font-size="14" lengthAdjust="spacing" textLength="70" x="411" y="230.291">&#25945;&#24072;&#31471;&#39029;&#38754;</text><text fill="#000000" font-family="Microsoft YaHei" font-size="14" lengthAdjust="spacing" textLength="82" x="411" y="248.7686">Vue 3 + Vite</text></g><!--entity StudentUI--><g id="elem_StudentUI"><rect fill="#F1F1F1" height="56.9551" rx="2.5" ry="2.5" style="stroke:#181818;stroke-width:0.5;" width="102" x="538" y="205.4775"/><text fill="#000000" font-family="Microsoft YaHei" font-size="14" lengthAdjust="spacing" textLength="70" x="548" y="230.291">&#23398;&#29983;&#31471;&#39029;&#38754;</text><text fill="#000000" font-family="Microsoft YaHei" font-size="14" lengthAdjust="spacing" textLength="82" x="548" y="248.7686">Vue 3 + Vite</text></g><!--entity SharedUI--><g id="elem_SharedUI"><rect fill="#F1F1F1" height="56.9551" rx="2.5" ry="2.5" style="stroke:#181818;stroke-width:0.5;" width="132" x="675" y="205.4775"/><text fill="#000000" font-family="Microsoft YaHei" font-size="14" lengthAdjust="spacing" textLength="112" x="685" y="230.291">&#20844;&#20849;&#35748;&#35777;&#19982;&#36164;&#26009;&#39029;</text><text fill="#000000" font-family="Microsoft YaHei" font-size="14" lengthAdjust="spacing" textLength="86" x="685" y="248.7686">&#30331;&#24405; / Profile</text></g><!--entity FrontBase--><g id="elem_FrontBase"><rect fill="#F1F1F1" height="56.9551" rx="2.5" ry="2.5" style="stroke:#181818;stroke-width:0.5;" width="193" x="492.5" y="323.4775"/><text fill="#000000" font-family="Microsoft YaHei" font-size="14" lengthAdjust="spacing" textLength="84" x="502.5" y="348.291">&#21069;&#31471;&#22522;&#30784;&#33021;&#21147;</text><text fill="#000000" font-family="Microsoft YaHei" font-size="14" lengthAdjust="spacing" textLength="173" x="502.5" y="366.7686">Pinia / Vue Router / Axios</text></g><!--entity Auth--><g id="elem_Auth"><rect fill="#F1F1F1" height="56.9551" rx="2.5" ry="2.5" style="stroke:#181818;stroke-width:0.5;" width="90" x="23" y="466.4775"/><text fill="#000000" font-family="Microsoft YaHei" font-size="14" lengthAdjust="spacing" textLength="70" x="33" y="491.291">&#35748;&#35777;&#19982;&#26435;&#38480;</text><text fill="#000000" font-family="Microsoft YaHei" font-size="14" lengthAdjust="spacing" textLength="31" x="33" y="509.7686">auth</text></g><!--entity Clazz--><g id="elem_Clazz"><rect fill="#F1F1F1" height="56.9551" rx="2.5" ry="2.5" style="stroke:#181818;stroke-width:0.5;" width="122" x="148" y="466.4775"/><text fill="#000000" font-family="Microsoft YaHei" font-size="14" lengthAdjust="spacing" textLength="70" x="158" y="491.291">&#29677;&#32423;&#19982;&#23398;&#29983;</text><text fill="#000000" font-family="Microsoft YaHei" font-size="14" lengthAdjust="spacing" textLength="102" x="158" y="509.7686">clazz + student</text></g><!--entity Assets--><g id="elem_Assets"><rect fill="#F1F1F1" height="56.9551" rx="2.5" ry="2.5" style="stroke:#181818;stroke-width:0.5;" width="152" x="305" y="466.4775"/><text fill="#000000" font-family="Microsoft YaHei" font-size="14" lengthAdjust="spacing" textLength="70" x="315" y="491.291">&#36164;&#26009;&#19982;&#39064;&#24211;</text><text fill="#000000" font-family="Microsoft YaHei" font-size="14" lengthAdjust="spacing" textLength="132" x="315" y="509.7686">material + question</text></g><!--entity Lab--><g id="elem_Lab"><rect fill="#F1F1F1" height="56.9551" rx="2.5" ry="2.5" style="stroke:#181818;stroke-width:0.5;" width="76" x="492" y="466.4775"/><text fill="#000000" font-family="Microsoft YaHei" font-size="14" lengthAdjust="spacing" textLength="56" x="502" y="491.291">&#23454;&#39564;&#38381;&#29615;</text><text fill="#000000" font-family="Microsoft YaHei" font-size="14" lengthAdjust="spacing" textLength="21" x="502" y="509.7686">lab</text></g><!--entity Homework--><g id="elem_Homework"><rect fill="#F1F1F1" height="56.9551" rx="2.5" ry="2.5" style="stroke:#181818;stroke-width:0.5;" width="92" x="603" y="466.4775"/><text fill="#000000" font-family="Microsoft YaHei" font-size="14" lengthAdjust="spacing" textLength="56" x="613" y="491.291">&#20316;&#19994;&#38381;&#29615;</text><text fill="#000000" font-family="Microsoft YaHei" font-size="14" lengthAdjust="spacing" textLength="72" x="613" y="509.7686">homework</text></g><!--entity Exam--><g id="elem_Exam"><rect fill="#F1F1F1" height="56.9551" rx="2.5" ry="2.5" style="stroke:#181818;stroke-width:0.5;" width="76" x="730" y="466.4775"/><text fill="#000000" font-family="Microsoft YaHei" font-size="14" lengthAdjust="spacing" textLength="56" x="740" y="491.291">&#32771;&#35797;&#38381;&#29615;</text><text fill="#000000" font-family="Microsoft YaHei" font-size="14" lengthAdjust="spacing" textLength="36" x="740" y="509.7686">exam</text></g><!--entity Analysis--><g id="elem_Analysis"><rect fill="#F1F1F1" height="56.9551" rx="2.5" ry="2.5" style="stroke:#181818;stroke-width:0.5;" width="76" x="841" y="466.4775"/><text fill="#000000" font-family="Microsoft YaHei" font-size="14" lengthAdjust="spacing" textLength="56" x="851" y="491.291">&#32479;&#35745;&#20998;&#26512;</text><text fill="#000000" font-family="Microsoft YaHei" font-size="14" lengthAdjust="spacing" textLength="52" x="851" y="509.7686">analysis</text></g><!--entity Plagiarism--><g id="elem_Plagiarism"><rect fill="#F1F1F1" height="56.9551" rx="2.5" ry="2.5" style="stroke:#181818;stroke-width:0.5;" width="90" x="952" y="466.4775"/><text fill="#000000" font-family="Microsoft YaHei" font-size="14" lengthAdjust="spacing" textLength="56" x="962" y="491.291">&#26597;&#37325;&#33021;&#21147;</text><text fill="#000000" font-family="Microsoft YaHei" font-size="14" lengthAdjust="spacing" textLength="70" x="962" y="509.7686">plagiarism</text></g><!--entity Common--><g id="elem_Common"><rect fill="#F1F1F1" height="56.9551" rx="2.5" ry="2.5" style="stroke:#181818;stroke-width:0.5;" width="160" x="1077" y="466.4775"/><text fill="#000000" font-family="Microsoft YaHei" font-size="14" lengthAdjust="spacing" textLength="140" x="1087" y="491.291">&#32479;&#19968;&#21709;&#24212; / &#24322;&#24120; / &#23457;&#35745;</text><text fill="#000000" font-family="Microsoft YaHei" font-size="14" lengthAdjust="spacing" textLength="60" x="1087" y="509.7686">common</text></g><!--entity DB--><g id="elem_DB"><path d="M565.5,596.4775 C565.5,586.4775 649,586.4775 649,586.4775 C649,586.4775 732.5,586.4775 732.5,596.4775 L732.5,642.4326 C732.5,652.4326 649,652.4326 649,652.4326 C649,652.4326 565.5,652.4326 565.5,642.4326 L565.5,596.4775 " fill="#F1F1F1" style="stroke:#181818;stroke-width:0.5;"/><path d="M565.5,596.4775 C565.5,606.4775 649,606.4775 649,606.4775 C649,606.4775 732.5,606.4775 732.5,596.4775 " fill="none" style="stroke:#181818;stroke-width:0.5;"/><text fill="#000000" font-family="Microsoft YaHei" font-size="14" lengthAdjust="spacing" textLength="42" x="575.5" y="625.291">&#25968;&#25454;&#24211;</text><text fill="#000000" font-family="Microsoft YaHei" font-size="14" lengthAdjust="spacing" textLength="147" x="575.5" y="643.7686">Flyway Migration &#31649;&#29702;</text></g><!--entity DesignPack--><g id="elem_DesignPack"><rect fill="#F1F1F1" height="52.9551" rx="2.5" ry="2.5" style="stroke:#181818;stroke-width:0.5;" width="86" x="548" y="50.4775"/><rect fill="#F1F1F1" height="52.9551" rx="2.5" ry="2.5" style="stroke:#181818;stroke-width:0.5;" width="86" x="544" y="46.4775"/><text fill="#000000" font-family="Microsoft YaHei" font-size="14" lengthAdjust="spacing" textLength="70" x="552" y="69.291">&#35774;&#35745;&#35299;&#37322;&#23618;</text><text fill="#000000" font-family="Microsoft YaHei" font-size="14" lengthAdjust="spacing" textLength="51" x="552" y="87.7686">design/</text></g><g id="elem_GMN42"><path d="M767.5,588.9775 L767.5,615.4775 L732.53,619.4775 L767.5,623.4775 L767.5,650.4507 A0,0 0 0 0 767.5,650.4507 L1058.5,650.4507 A0,0 0 0 0 1058.5,650.4507 L1058.5,598.9775 L1048.5,588.9775 L767.5,588.9775 A0,0 0 0 0 767.5,588.9775 " fill="#FEFFDD" style="stroke:#181818;stroke-width:0.5;"/><path d="M1048.5,588.9775 L1048.5,598.9775 L1058.5,598.9775 L1048.5,588.9775 " fill="#FEFFDD" style="stroke:#181818;stroke-width:0.5;"/><text fill="#000000" font-family="Microsoft YaHei" font-size="13" lengthAdjust="spacing" textLength="78" x="773.5" y="607.7329">&#25968;&#25454;&#24211;&#20107;&#23454;&#20197;</text><text fill="#000000" font-family="Microsoft YaHei" font-size="13" lengthAdjust="spacing" textLength="270" x="773.5" y="624.8906">backend/src/main/resources/db/migration/</text><text fill="#000000" font-family="Microsoft YaHei" font-size="13" lengthAdjust="spacing" textLength="26" x="773.5" y="642.0483">&#20026;&#20934;</text></g><!--link TeacherUI to FrontBase--><g id="link_TeacherUI_FrontBase"><path d="M484.81,262.7575 C506.5,281.1275 530.2415,301.2197 551.8715,319.5397 " fill="none" id="TeacherUI-to-FrontBase" style="stroke:#334155;stroke-width:1.0;"/><polygon fill="#334155" points="556.45,323.4175,552.1675,314.5485,552.6346,320.186,546.9971,320.6531,556.45,323.4175" style="stroke:#334155;stroke-width:1.0;"/></g><!--link StudentUI to FrontBase--><g id="link_StudentUI_FrontBase"><path d="M589,262.7575 C589,281.1275 589,299.0975 589,317.4175 " fill="none" id="StudentUI-to-FrontBase" style="stroke:#334155;stroke-width:1.0;"/><polygon fill="#334155" points="589,323.4175,593,314.4175,589,318.4175,585,314.4175,589,323.4175" style="stroke:#334155;stroke-width:1.0;"/></g><!--link SharedUI to FrontBase--><g id="link_SharedUI_FrontBase"><path d="M704.59,262.7575 C680.53,281.1275 653.8793,301.457 629.8793,319.777 " fill="none" id="SharedUI-to-FrontBase" style="stroke:#334155;stroke-width:1.0;"/><polygon fill="#334155" points="625.11,323.4175,634.691,321.1362,629.0844,320.3837,629.8369,314.7772,625.11,323.4175" style="stroke:#334155;stroke-width:1.0;"/></g><!--link FrontBase to Auth--><g id="link_FrontBase_Auth"><path d="M492.25,359.4575 C376.44,368.5875 190.53,387.9575 130,421.4775 C111.16,431.9075 98.8846,445.5039 88.0046,461.2239 " fill="none" id="FrontBase-to-Auth" style="stroke:#334155;stroke-width:1.0;"/><polygon fill="#334155" points="84.59,466.1575,93.001,461.0335,87.4355,462.0462,86.4228,456.4807,84.59,466.1575" style="stroke:#334155;stroke-width:1.0;"/></g><!--link FrontBase to Clazz--><g id="link_FrontBase_Clazz"><path d="M492.36,361.8475 C430.76,370.5775 350.82,387.7675 287,421.4775 C265.91,432.6175 250.347,446.5355 236.047,461.9755 " fill="none" id="FrontBase-to-Clazz" style="stroke:#334155;stroke-width:1.0;"/><polygon fill="#334155" points="231.97,466.3775,241.0202,462.4925,235.3675,462.7092,235.1508,457.0565,231.97,466.3775" style="stroke:#334155;stroke-width:1.0;"/></g><!--link FrontBase to Assets--><g id="link_FrontBase_Assets"><path d="M540.24,380.5975 C519.76,392.6275 495.88,407.2175 475,421.4775 C454.57,435.4175 437.3401,448.498 419.8101,462.408 " fill="none" id="FrontBase-to-Assets" style="stroke:#334155;stroke-width:1.0;"/><polygon fill="#334155" points="415.11,466.1375,424.6465,463.6767,419.0267,463.0296,419.6738,457.4099,415.11,466.1375" style="stroke:#334155;stroke-width:1.0;"/></g><!--link FrontBase to Lab--><g id="link_FrontBase_Lab"><path d="M577.48,380.4975 C567.16,405.1875 554.3858,435.7024 544.0058,460.5124 " fill="none" id="FrontBase-to-Lab" style="stroke:#334155;stroke-width:1.0;"/><polygon fill="#334155" points="541.69,466.0475,548.8537,459.2888,543.6198,461.435,541.4736,456.2011,541.69,466.0475" style="stroke:#334155;stroke-width:1.0;"/></g><!--link FrontBase to Homework--><g id="link_FrontBase_Homework"><path d="M600.71,380.4975 C611.21,405.1875 624.2121,435.716 634.7621,460.526 " fill="none" id="FrontBase-to-Homework" style="stroke:#334155;stroke-width:1.0;"/><polygon fill="#334155" points="637.11,466.0475,637.2691,456.2,635.1534,461.4463,629.9071,459.3305,637.11,466.0475" style="stroke:#334155;stroke-width:1.0;"/></g><!--link FrontBase to Exam--><g id="link_FrontBase_Exam"><path d="M650.62,380.5275 C671.64,391.5575 694.49,405.4675 713,421.4775 C727.82,434.2975 737.8164,446.739 747.6664,461.289 " fill="none" id="FrontBase-to-Exam" style="stroke:#334155;stroke-width:1.0;"/><polygon fill="#334155" points="751.03,466.2575,749.297,456.5624,748.227,462.1171,742.6723,461.0471,751.03,466.2575" style="stroke:#334155;stroke-width:1.0;"/></g><!--link FrontBase to Analysis--><g id="link_FrontBase_Analysis"><path d="M685.67,366.7675 C730.66,376.6375 783.13,393.3475 824,421.4775 C840.66,432.9375 851.2198,445.9859 860.7998,461.2459 " fill="none" id="FrontBase-to-Analysis" style="stroke:#334155;stroke-width:1.0;"/><polygon fill="#334155" points="863.99,466.3275,862.5925,456.5783,861.3315,462.0929,855.817,460.8319,863.99,466.3275" style="stroke:#334155;stroke-width:1.0;"/></g><!--link FrontBase to Plagiarism--><g id="link_FrontBase_Plagiarism"><path d="M685.65,355.2375 C758.58,360.7875 858.76,376.8675 935,421.4775 C953.44,432.2675 965.5846,445.6824 976.5246,461.2124 " fill="none" id="FrontBase-to-Plagiarism" style="stroke:#334155;stroke-width:1.0;"/><polygon fill="#334155" points="979.98,466.1175,978.067,456.4563,977.1005,462.0299,971.5268,461.0634,979.98,466.1175" style="stroke:#334155;stroke-width:1.0;"/></g><!--link Auth to DB--><g id="link_Auth_DB"><path d="M94.44,523.4975 C104.69,532.5675 117.06,541.7875 130,547.4775 C206.22,581.0175 432.9878,602.4463 559.3178,612.1863 " fill="none" id="Auth-to-DB" style="stroke:#334155;stroke-width:1.0;"/><polygon fill="#334155" points="565.3,612.6475,556.6341,607.9675,560.3148,612.2632,556.0191,615.9439,565.3,612.6475" style="stroke:#334155;stroke-width:1.0;"/></g><!--link Clazz to DB--><g id="link_Clazz_DB"><path d="M244.64,523.7275 C257.4,532.4975 272.28,541.4475 287,547.4775 C378.13,584.7875 484.4081,602.2121 559.5281,610.7221 " fill="none" id="Clazz-to-DB" style="stroke:#334155;stroke-width:1.0;"/><polygon fill="#334155" points="565.49,611.3975,556.9975,606.4099,560.5218,610.8347,556.0969,614.359,565.49,611.3975" style="stroke:#334155;stroke-width:1.0;"/></g><!--link Assets to DB--><g id="link_Assets_DB"><path d="M428.76,523.5075 C443.41,531.5875 459.71,540.1975 475,547.4775 C504.02,561.2875 530.8918,572.7526 559.8418,584.3726 " fill="none" id="Assets-to-DB" style="stroke:#334155;stroke-width:1.0;"/><polygon fill="#334155" points="565.41,586.6075,558.5477,579.5429,560.7698,584.7451,555.5677,586.9672,565.41,586.6075" style="stroke:#334155;stroke-width:1.0;"/></g><!--link Lab to DB--><g id="link_Lab_DB"><path d="M557,523.7775 C575.11,542.4075 594.8186,562.7045 613.7186,582.1545 " fill="none" id="Lab-to-DB" style="stroke:#334155;stroke-width:1.0;"/><polygon fill="#334155" points="617.9,586.4575,614.4966,577.2154,614.4155,582.8717,608.7593,582.7905,617.9,586.4575" style="stroke:#334155;stroke-width:1.0;"/></g><!--link Homework to DB--><g id="link_Homework_DB"><path d="M649,523.7775 C649,542.4075 649,561.0075 649,580.4575 " fill="none" id="Homework-to-DB" style="stroke:#334155;stroke-width:1.0;"/><polygon fill="#334155" points="649,586.4575,653,577.4575,649,581.4575,645,577.4575,649,586.4575" style="stroke:#334155;stroke-width:1.0;"/></g><!--link Exam to DB--><g id="link_Exam_DB"><path d="M741,523.7775 C722.89,542.4075 703.1814,562.7045 684.2814,582.1545 " fill="none" id="Exam-to-DB" style="stroke:#334155;stroke-width:1.0;"/><polygon fill="#334155" points="680.1,586.4575,689.2407,582.7905,683.5845,582.8717,683.5034,577.2154,680.1,586.4575" style="stroke:#334155;stroke-width:1.0;"/></g><!--link Analysis to DB--><g id="link_Analysis_DB"><path d="M853.52,523.5175 C844.74,531.9675 834.47,540.7775 824,547.4775 C795.96,565.4075 768.2568,578.1413 738.2568,589.5713 " fill="none" id="Analysis-to-DB" style="stroke:#334155;stroke-width:1.0;"/><polygon fill="#334155" points="732.65,591.7075,742.4844,592.2411,737.3224,589.9274,739.6361,584.7653,732.65,591.7075" style="stroke:#334155;stroke-width:1.0;"/></g><!--link Plagiarism to DB--><g id="link_Plagiarism_DB"><path d="M969.72,523.5275 C959.57,532.3775 947.47,541.4475 935,547.4775 C859.35,584.0575 831.26,565.0975 750,586.4775 C744.31,587.9775 744.2232,587.9285 738.3532,589.6285 " fill="none" id="Plagiarism-to-DB" style="stroke:#334155;stroke-width:1.0;"/><polygon fill="#334155" points="732.59,591.2975,742.3475,592.6361,737.3926,589.9067,740.1221,584.9518,732.59,591.2975" style="stroke:#334155;stroke-width:1.0;"/></g><!--link Common to DB--><g id="link_Common_DB"><path d="M1113.09,523.6275 C1096.95,532.6075 1078.18,541.7275 1060,547.4775 C927.61,589.3875 885.64,556.7175 750,586.4775 C744.34,587.7175 744.3397,587.6003 738.5297,589.1403 " fill="none" id="Common-to-DB" style="stroke:#334155;stroke-width:1.0;"/><polygon fill="#334155" points="732.73,590.6775,742.4544,592.2381,737.5631,589.3965,740.4047,584.5051,732.73,590.6775" style="stroke:#334155;stroke-width:1.0;"/></g><!--link DesignPack to TeacherUI--><g id="link_DesignPack_TeacherUI"><path d="M543.87,83.1275 C513.98,90.4075 476.76,104.8975 457,133.4775 C442.64,154.2475 442.2024,177.7449 445.1924,199.2149 " fill="none" id="DesignPack-to-TeacherUI" style="stroke:#334155;stroke-width:1.0;stroke-dasharray:7.0,7.0;"/><polygon fill="#334155" points="446.02,205.1575,448.7404,195.6918,445.3303,200.2053,440.8168,196.7953,446.02,205.1575" style="stroke:#334155;stroke-width:1.0;"/><text fill="#000000" font-family="Microsoft YaHei" font-size="13" lengthAdjust="spacing" textLength="118" x="458" y="148.2329">&#39029;&#38754;&#22865;&#32422; / &#21407;&#22411;&#38170;&#28857;</text></g><!--link DesignPack to StudentUI--><g id="link_DesignPack_StudentUI"><path d="M587.26,103.7475 C586.74,113.1775 586.25,123.7875 586,133.4775 C585.37,157.6675 586.0325,179.1649 587.0225,199.1049 " fill="none" id="DesignPack-to-StudentUI" style="stroke:#334155;stroke-width:1.0;stroke-dasharray:7.0,7.0;"/><polygon fill="#334155" points="587.32,205.0975,590.8688,195.9103,587.0721,200.1037,582.8786,196.307,587.32,205.0975" style="stroke:#334155;stroke-width:1.0;"/><text fill="#000000" font-family="Microsoft YaHei" font-size="13" lengthAdjust="spacing" textLength="118" x="587" y="148.2329">&#39029;&#38754;&#22865;&#32422; / &#21407;&#22411;&#38170;&#28857;</text></g><!--link DesignPack to SharedUI--><g id="link_DesignPack_SharedUI"><path d="M634.27,87.6575 C659.77,96.3875 690.34,110.8175 710,133.4775 C727.43,153.5675 734.1466,177.4675 737.4966,199.2175 " fill="none" id="DesignPack-to-SharedUI" style="stroke:#334155;stroke-width:1.0;stroke-dasharray:7.0,7.0;"/><polygon fill="#334155" points="738.41,205.1475,740.9933,195.6435,737.6489,200.2058,733.0866,196.8613,738.41,205.1475" style="stroke:#334155;stroke-width:1.0;"/><text fill="#000000" font-family="Microsoft YaHei" font-size="13" lengthAdjust="spacing" textLength="118" x="723" y="148.2329">&#39029;&#38754;&#22865;&#32422; / &#21407;&#22411;&#38170;&#28857;</text></g><!--SRC=[bLLTRnD757sVNp4oZmYiAg55VK1A0X6LIXML5Wd9B-FTiJtAxamwCvO9LQMGG4AX2McJj0qVjamJgDh68QgepARXr-nulV-YCxFUjRsXIBpTU-VSZpttp8wO9tG1SUH35rTGtPEpZCela8zXuHfnE1Ei8k5DT1MJ0X0PLjIGong4Lc45UGAFd3ZCNs0KKtbTBdeOSkn8HAlUA6G1EVEeYlyVKDQ0AcTrwiumZt7Og14vUZx5EMiaHsSc9YO_kd3XTFLfnbtC1w2F9p-Pl5X-1oZNw4pbOWLL700aaNgstiwkEdYXtloj7htgBHs79rkzvZ-zvbtrv2q0WnAme8vsehqWx6w4mLuO_AIEbWlmMm27JC22ATIz7_rv6BTVny-Ub-YDEeOJy2oyeJ-i0960Ns7ar33_-hFnHDq-scwzB_6whBiQUYhntb_gtb6_izS_lAD7wx- -s_jvLnSfqMZtM9tim2ASuwn2l46L6kBOFLNa-tNTMhM2gBtKNpbH3vwKw1oX1EbiCyYNh2unryxKBSA4BJJBjNocaPR4TwCKRMwOGi5sjFtxk_Z9vkmzMubtDqiKrMNDrflInZWsUdGG1IyrDk6cH1qFtRwjAH494pPjniHoFIm5EYz-_giAjahKHtfuWZoT-aqT2qaOJLeAWQN8CT5fnd_y4Fzo46qSbgY7oXRvEIgFmyAJfs7tSGghCHyt69-tsAi39pVKqah_S2TDmBUGRy5Nj97xwkDMlzDMzrTxJKCFHTwY80dbKmCd9xdMVhosdcvjmKDLWZWHIVsvp3tL9UmkgQrrlIgzLlNlikfsZT5fw-wQQkRx0vPch6csx2A9odhZHkQlUkiTI-wijzX0Y_0QgN9ac8LHfnrjhjhKozF0OPwdBxu-46RxRtNr_ilVuhK7MXqbwc91ghIOWAqzfvK4G7P9uBbpbqQabjs1V7oWwbmOPAOzi18R3oNooS4IMOm7ZGB68zcUnyDsexc2wTx6moEx0MOq6zIKsPbI9naczVGKgPcsJttJDqiQD4pzOQUiXrrgwe4Xz_3y-Kl3VnJy52R_8xN_OnIyC0BPQAdcmtZxSRJy9fystCw7fQNBUtyMe4pgLuHKQnAoYXaxKs4OFDJtDZpU1-P1mTGj2kuKVKHeaMF1wjp1ekYMYtugqY88ku5QMmKQ2qrTy1y0]--></g></svg>