<?xml version="1.0" encoding="us-ascii" standalone="no"?><svg xmlns="http://www.w3.org/2000/svg" xmlns:xlink="http://www.w3.org/1999/xlink" contentStyleType="text/css" height="630px" preserveAspectRatio="none" style="width:1168px;height:630px;background:#FFFFFF;" version="1.1" viewBox="0 0 1168 630" width="1168px" zoomAndPan="magnify"><defs/><g><text fill="#000000" font-family="Microsoft YaHei" font-size="14" font-weight="bold" lengthAdjust="spacing" textLength="112" x="527.5" y="29.8135">&#26435;&#38480;&#19982;&#36335;&#30001;&#21327;&#20316;&#22270;</text><line style="stroke:#181818;stroke-width:0.5;stroke-dasharray:5.0,5.0;" x1="22" x2="22" y1="122.9551" y2="548.0054"/><line style="stroke:#181818;stroke-width:0.5;stroke-dasharray:5.0,5.0;" x1="124" x2="124" y1="122.9551" y2="548.0054"/><line style="stroke:#181818;stroke-width:0.5;stroke-dasharray:5.0,5.0;" x1="264" x2="264" y1="122.9551" y2="548.0054"/><line style="stroke:#181818;stroke-width:0.5;stroke-dasharray:5.0,5.0;" x1="470" x2="470" y1="122.9551" y2="548.0054"/><line style="stroke:#181818;stroke-width:0.5;stroke-dasharray:5.0,5.0;" x1="669" x2="669" y1="122.9551" y2="548.0054"/><line style="stroke:#181818;stroke-width:0.5;stroke-dasharray:5.0,5.0;" x1="813" x2="813" y1="122.9551" y2="548.0054"/><line style="stroke:#181818;stroke-width:0.5;stroke-dasharray:5.0,5.0;" x1="997" x2="997" y1="122.9551" y2="548.0054"/><line style="stroke:#181818;stroke-width:0.5;stroke-dasharray:5.0,5.0;" x1="1133" x2="1133" y1="122.9551" y2="548.0054"/><text fill="#000000" font-family="Microsoft YaHei" font-size="14" lengthAdjust="spacing" textLength="28" x="5" y="119.291">&#29992;&#25143;</text><ellipse cx="22" cy="52.9775" fill="#E2E2F0" rx="8" ry="8" style="stroke:#181818;stroke-width:0.5;"/><path d="M22,60.9775 L22,87.9775 M9,68.9775 L35,68.9775 M22,87.9775 L9,102.9775 M22,87.9775 L35,102.9775 " fill="none" style="stroke:#181818;stroke-width:0.5;"/><text fill="#000000" font-family="Microsoft YaHei" font-size="14" lengthAdjust="spacing" textLength="28" x="5" y="561.8188">&#29992;&#25143;</text><ellipse cx="22" cy="573.9829" fill="#E2E2F0" rx="8" ry="8" style="stroke:#181818;stroke-width:0.5;"/><path d="M22,581.9829 L22,608.9829 M9,589.9829 L35,589.9829 M22,608.9829 L9,623.9829 M22,608.9829 L35,623.9829 " fill="none" style="stroke:#181818;stroke-width:0.5;"/><rect fill="#E2E2F0" height="50.9551" rx="2.5" ry="2.5" style="stroke:#181818;stroke-width:0.5;" width="56" x="96" y="71"/><text fill="#000000" font-family="Microsoft YaHei" font-size="14" lengthAdjust="spacing" textLength="42" x="103" y="92.8135">&#30331;&#24405;&#39029;</text><text fill="#000000" font-family="Microsoft YaHei" font-size="14" lengthAdjust="spacing" textLength="41" x="103.5" y="111.291">/login</text><rect fill="#E2E2F0" height="50.9551" rx="2.5" ry="2.5" style="stroke:#181818;stroke-width:0.5;" width="56" x="96" y="547.0054"/><text fill="#000000" font-family="Microsoft YaHei" font-size="14" lengthAdjust="spacing" textLength="42" x="103" y="568.8188">&#30331;&#24405;&#39029;</text><text fill="#000000" font-family="Microsoft YaHei" font-size="14" lengthAdjust="spacing" textLength="41" x="103.5" y="587.2964">/login</text><rect fill="#E2E2F0" height="32.4775" rx="2.5" ry="2.5" style="stroke:#181818;stroke-width:0.5;" width="124" x="202" y="89.4775"/><text fill="#000000" font-family="Microsoft YaHei" font-size="14" lengthAdjust="spacing" textLength="110" x="209" y="111.291">Pinia Auth Store</text><rect fill="#E2E2F0" height="32.4775" rx="2.5" ry="2.5" style="stroke:#181818;stroke-width:0.5;" width="124" x="202" y="547.0054"/><text fill="#000000" font-family="Microsoft YaHei" font-size="14" lengthAdjust="spacing" textLength="110" x="209" y="568.8188">Pinia Auth Store</text><rect fill="#E2E2F0" height="32.4775" rx="2.5" ry="2.5" style="stroke:#181818;stroke-width:0.5;" width="134" x="403" y="89.4775"/><text fill="#000000" font-family="Microsoft YaHei" font-size="14" lengthAdjust="spacing" textLength="120" x="410" y="111.291">Vue Router Guard</text><rect fill="#E2E2F0" height="32.4775" rx="2.5" ry="2.5" style="stroke:#181818;stroke-width:0.5;" width="134" x="403" y="547.0054"/><text fill="#000000" font-family="Microsoft YaHei" font-size="14" lengthAdjust="spacing" textLength="120" x="410" y="568.8188">Vue Router Guard</text><rect fill="#E2E2F0" height="32.4775" rx="2.5" ry="2.5" style="stroke:#181818;stroke-width:0.5;" width="74" x="632" y="89.4775"/><text fill="#000000" font-family="Microsoft YaHei" font-size="14" lengthAdjust="spacing" textLength="60" x="639" y="111.291">Auth API</text><rect fill="#E2E2F0" height="32.4775" rx="2.5" ry="2.5" style="stroke:#181818;stroke-width:0.5;" width="74" x="632" y="547.0054"/><text fill="#000000" font-family="Microsoft YaHei" font-size="14" lengthAdjust="spacing" textLength="60" x="639" y="568.8188">Auth API</text><rect fill="#E2E2F0" height="32.4775" rx="2.5" ry="2.5" style="stroke:#181818;stroke-width:0.5;" width="114" x="756" y="89.4775"/><text fill="#000000" font-family="Microsoft YaHei" font-size="14" lengthAdjust="spacing" textLength="100" x="763" y="111.291">AuthController</text><rect fill="#E2E2F0" height="32.4775" rx="2.5" ry="2.5" style="stroke:#181818;stroke-width:0.5;" width="114" x="756" y="547.0054"/><text fill="#000000" font-family="Microsoft YaHei" font-size="14" lengthAdjust="spacing" textLength="100" x="763" y="568.8188">AuthController</text><rect fill="#E2E2F0" height="32.4775" rx="2.5" ry="2.5" style="stroke:#181818;stroke-width:0.5;" width="154" x="920" y="89.4775"/><text fill="#000000" font-family="Microsoft YaHei" font-size="14" lengthAdjust="spacing" textLength="140" x="927" y="111.291">SecurityConfig / JWT</text><rect fill="#E2E2F0" height="32.4775" rx="2.5" ry="2.5" style="stroke:#181818;stroke-width:0.5;" width="154" x="920" y="547.0054"/><text fill="#000000" font-family="Microsoft YaHei" font-size="14" lengthAdjust="spacing" textLength="140" x="927" y="568.8188">SecurityConfig / JWT</text><text fill="#000000" font-family="Microsoft YaHei" font-size="14" lengthAdjust="spacing" textLength="53" x="1104" y="119.291">sys_user</text><path d="M1115.5,68.4775 C1115.5,58.4775 1133.5,58.4775 1133.5,58.4775 C1133.5,58.4775 1151.5,58.4775 1151.5,68.4775 L1151.5,94.4775 C1151.5,104.4775 1133.5,104.4775 1133.5,104.4775 C1133.5,104.4775 1115.5,104.4775 1115.5,94.4775 L1115.5,68.4775 " fill="#E2E2F0" style="stroke:#181818;stroke-width:1.5;"/><path d="M1115.5,68.4775 C1115.5,78.4775 1133.5,78.4775 1133.5,78.4775 C1133.5,78.4775 1151.5,78.4775 1151.5,68.4775 " fill="none" style="stroke:#181818;stroke-width:1.5;"/><text fill="#000000" font-family="Microsoft YaHei" font-size="14" lengthAdjust="spacing" textLength="53" x="1104" y="561.8188">sys_user</text><path d="M1115.5,575.4829 C1115.5,565.4829 1133.5,565.4829 1133.5,565.4829 C1133.5,565.4829 1151.5,565.4829 1151.5,575.4829 L1151.5,601.4829 C1151.5,611.4829 1133.5,611.4829 1133.5,611.4829 C1133.5,611.4829 1115.5,611.4829 1115.5,601.4829 L1115.5,575.4829 " fill="#E2E2F0" style="stroke:#181818;stroke-width:1.5;"/><path d="M1115.5,575.4829 C1115.5,585.4829 1133.5,585.4829 1133.5,585.4829 C1133.5,585.4829 1151.5,585.4829 1151.5,575.4829 " fill="none" style="stroke:#181818;stroke-width:1.5;"/><polygon fill="#334155" points="112,152.1128,122,156.1128,112,160.1128,116,156.1128" style="stroke:#334155;stroke-width:1.0;"/><line style="stroke:#334155;stroke-width:1.0;" x1="22" x2="118" y1="156.1128" y2="156.1128"/><text fill="#000000" font-family="Microsoft YaHei" font-size="13" lengthAdjust="spacing" textLength="78" x="29" y="150.7104">&#36755;&#20837;&#36134;&#21495;&#23494;&#30721;</text><polygon fill="#334155" points="657,183.2705,667,187.2705,657,191.2705,661,187.2705" style="stroke:#334155;stroke-width:1.0;"/><line style="stroke:#334155;stroke-width:1.0;" x1="124" x2="663" y1="187.2705" y2="187.2705"/><text fill="#000000" font-family="Microsoft YaHei" font-size="13" lengthAdjust="spacing" textLength="153" x="131" y="181.8682">POST /api/v1/auth/login</text><polygon fill="#334155" points="801,214.4282,811,218.4282,801,222.4282,805,218.4282" style="stroke:#334155;stroke-width:1.0;"/><line style="stroke:#334155;stroke-width:1.0;" x1="669" x2="807" y1="218.4282" y2="218.4282"/><text fill="#000000" font-family="Microsoft YaHei" font-size="13" lengthAdjust="spacing" textLength="52" x="676" y="213.0259">&#30331;&#24405;&#35831;&#27714;</text><polygon fill="#334155" points="985,245.5859,995,249.5859,985,253.5859,989,249.5859" style="stroke:#334155;stroke-width:1.0;"/><line style="stroke:#334155;stroke-width:1.0;" x1="813" x2="991" y1="249.5859" y2="249.5859"/><text fill="#000000" font-family="Microsoft YaHei" font-size="13" lengthAdjust="spacing" textLength="104" x="820" y="244.1836">&#35748;&#35777;&#19982;&#31614;&#21457; token</text><polygon fill="#334155" points="1121.5,276.7437,1131.5,280.7437,1121.5,284.7437,1125.5,280.7437" style="stroke:#334155;stroke-width:1.0;"/><line style="stroke:#334155;stroke-width:1.0;" x1="997" x2="1127.5" y1="280.7437" y2="280.7437"/><text fill="#000000" font-family="Microsoft YaHei" font-size="13" lengthAdjust="spacing" textLength="91" x="1004" y="275.3413">&#26597;&#35810;&#29992;&#25143;&#19982;&#35282;&#33394;</text><polygon fill="#334155" points="1008,307.9014,998,311.9014,1008,315.9014,1004,311.9014" style="stroke:#334155;stroke-width:1.0;"/><line style="stroke:#334155;stroke-width:1.0;stroke-dasharray:2.0,2.0;" x1="1002" x2="1132.5" y1="311.9014" y2="311.9014"/><text fill="#000000" font-family="Microsoft YaHei" font-size="13" lengthAdjust="spacing" textLength="78" x="1014" y="306.499">&#36820;&#22238;&#29992;&#25143;&#20449;&#24687;</text><polygon fill="#334155" points="824,339.0591,814,343.0591,824,347.0591,820,343.0591" style="stroke:#334155;stroke-width:1.0;"/><line style="stroke:#334155;stroke-width:1.0;stroke-dasharray:2.0,2.0;" x1="818" x2="996" y1="343.0591" y2="343.0591"/><text fill="#000000" font-family="Microsoft YaHei" font-size="13" lengthAdjust="spacing" textLength="79" x="830" y="337.6567">token + user</text><polygon fill="#334155" points="680,370.2168,670,374.2168,680,378.2168,676,374.2168" style="stroke:#334155;stroke-width:1.0;"/><line style="stroke:#334155;stroke-width:1.0;stroke-dasharray:2.0,2.0;" x1="674" x2="812" y1="374.2168" y2="374.2168"/><text fill="#000000" font-family="Microsoft YaHei" font-size="13" lengthAdjust="spacing" textLength="113" x="686" y="368.8145">ApiResponse.ok(...)</text><polygon fill="#334155" points="275,401.3745,265,405.3745,275,409.3745,271,405.3745" style="stroke:#334155;stroke-width:1.0;"/><line style="stroke:#334155;stroke-width:1.0;stroke-dasharray:2.0,2.0;" x1="269" x2="668" y1="405.3745" y2="405.3745"/><text fill="#000000" font-family="Microsoft YaHei" font-size="13" lengthAdjust="spacing" textLength="191" x="281" y="399.9722">&#20445;&#23384; token / user / permissions</text><polygon fill="#334155" points="458,432.5322,468,436.5322,458,440.5322,462,436.5322" style="stroke:#334155;stroke-width:1.0;"/><line style="stroke:#334155;stroke-width:1.0;" x1="22" x2="464" y1="436.5322" y2="436.5322"/><text fill="#000000" font-family="Microsoft YaHei" font-size="13" lengthAdjust="spacing" textLength="91" x="29" y="431.1299">&#35775;&#38382;&#21463;&#20445;&#25252;&#36335;&#30001;</text><polygon fill="#334155" points="275,463.6899,265,467.6899,275,471.6899,271,467.6899" style="stroke:#334155;stroke-width:1.0;"/><line style="stroke:#334155;stroke-width:1.0;" x1="269" x2="469" y1="467.6899" y2="467.6899"/><text fill="#000000" font-family="Microsoft YaHei" font-size="13" lengthAdjust="spacing" textLength="182" x="281" y="462.2876">&#26816;&#26597; token / user / homePath</text><polygon fill="#334155" points="657,494.8477,667,498.8477,657,502.8477,661,498.8477" style="stroke:#334155;stroke-width:1.0;"/><line style="stroke:#334155;stroke-width:1.0;" x1="470" x2="663" y1="498.8477" y2="498.8477"/><text fill="#000000" font-family="Microsoft YaHei" font-size="13" lengthAdjust="spacing" textLength="175" x="477" y="493.4453">&#24517;&#35201;&#26102; GET /api/v1/auth/me</text><polygon fill="#334155" points="33,526.0054,23,530.0054,33,534.0054,29,530.0054" style="stroke:#334155;stroke-width:1.0;"/><line style="stroke:#334155;stroke-width:1.0;stroke-dasharray:2.0,2.0;" x1="27" x2="469" y1="530.0054" y2="530.0054"/><text fill="#000000" font-family="Microsoft YaHei" font-size="13" lengthAdjust="spacing" textLength="156" x="39" y="524.603">&#25353;&#35282;&#33394;&#36339;&#36716;&#25945;&#24072;&#25110;&#23398;&#29983;&#39318;&#39029;</text><!--SRC=[RPDRRn915CVVvrDCy4LZ2jRQ5nzCQAjLusLJ6es9YHbXW0dBpcPdrgPlHLD3ZOeNMYIrrcgBFaWtzKOJ0tmPPdVv5ivUW8NsPNTdpk_ypvd_cMK5ekd8G4MOmLbaglmQrVWTLCGmTfka3SfebiC7w3ecCS26BCkZ35qXMWvcaSfm998q3BeoJrLgm3CpCvUcPsSZGVda94rqf745PJ9U_iKB0732LGpjdMVz-flUyMktPJdL8_6gqcj_5DiT052QIpcd-jqkjq140yQS-Z_Htkpl_Nce9LIQ8reC8WPlULyAok5nM24QGJ1fyZnCIK7iizxINuspzqmCbwZ9iG4NJMHaV3ROyDVZjA-PL6uC5PCwEKdCIsSDgghO67AZhN4yXTEcGVYgZ6T93YRWpVlBVj8W03A8eyU8oJ6nLVR8PA7emXm0WL5mwih827WPkfttOlt0_TqGbPQmdZkVIs0KbcpOjYILkwbbc40wIJoPJY2v7LWB1aG8ZtgNES4WNAjb7pq54r793zhs-ZZSTwsI7BFJx8ZAMyXf0MjW24XuOKvYzkw1Qtq9ZkBTYM_lt8sVG8Qc9kIwLR7zAUIwUtR9YcYTrgbV3vw7dcKdEXtpGJwNCDEfnd2S5ix6u_5p8mz2qhywakrrTqJpGoYUyCNbIyT6aJ16f4HaAf5hvFlHxTSEHQKc9UmN-y7b1r5cefJzTKsQCragJujOGJn_McPm7D5TTnibk_ONBbwTc6yHZwV9lB1TMUxbHc2-s_hbjd_OctLnNBRBMwBPSAgx_SQM_Fl0Vm00]--></g></svg>