<?xml version="1.0" encoding="us-ascii" standalone="no"?><svg xmlns="http://www.w3.org/2000/svg" xmlns:xlink="http://www.w3.org/1999/xlink" contentStyleType="text/css" height="625px" preserveAspectRatio="none" style="width:3226px;height:625px;background:#FFFFFF;" version="1.1" viewBox="0 0 3226 625" width="3226px" zoomAndPan="magnify"><defs/><g><text fill="#000000" font-family="Microsoft YaHei" font-size="14" font-weight="bold" lengthAdjust="spacing" textLength="270" x="1471" y="24.8135">&#20195;&#30721;&#32467;&#26500;&#24635;&#35272;&#22270;&#65288;&#21487;&#21518;&#32493;&#26367;&#25442;&#20026; IDE &#25130;&#22270;&#65289;</text><!--cluster frontend/src--><g id="cluster_frontend/src"><rect fill="#F8FAFC" height="441" rx="2.5" ry="2.5" style="stroke:#64748B;stroke-width:1.0;" width="1002" x="7" y="46.4775"/><text fill="#000000" font-family="Microsoft YaHei" font-size="14" font-weight="bold" lengthAdjust="spacing" textLength="89" x="463.5" y="63.291">frontend/src</text></g><!--cluster router--><g id="cluster_router"><rect fill="#F8FAFC" height="101" rx="2.5" ry="2.5" style="stroke:#64748B;stroke-width:1.0;" width="124" x="31" y="91.4775"/><text fill="#000000" font-family="Microsoft YaHei" font-size="14" font-weight="bold" lengthAdjust="spacing" textLength="44" x="71" y="108.291">router</text></g><!--cluster stores--><g id="cluster_stores"><rect fill="#F8FAFC" height="101" rx="2.5" ry="2.5" style="stroke:#64748B;stroke-width:1.0;" width="118" x="31" y="216.4775"/><text fill="#000000" font-family="Microsoft YaHei" font-size="14" font-weight="bold" lengthAdjust="spacing" textLength="43" x="68.5" y="233.291">stores</text></g><!--cluster api--><g id="cluster_api"><rect fill="#F8FAFC" height="101" rx="2.5" ry="2.5" style="stroke:#64748B;stroke-width:1.0;" width="812" x="173" y="216.4775"/><text fill="#000000" font-family="Microsoft YaHei" font-size="14" font-weight="bold" lengthAdjust="spacing" textLength="21" x="568.5" y="233.291">api</text></g><!--cluster views--><g id="cluster_views"><rect fill="#F8FAFC" height="101" rx="2.5" ry="2.5" style="stroke:#64748B;stroke-width:1.0;" width="663" x="179" y="91.4775"/><text fill="#000000" font-family="Microsoft YaHei" font-size="14" font-weight="bold" lengthAdjust="spacing" textLength="39" x="491" y="108.291">views</text></g><!--cluster backend/src/main/java/com/opencode/teachingplatform--><g id="cluster_backend/src/main/java/com/opencode/teachingplatform"><rect fill="#F8FAFC" height="278" rx="2.5" ry="2.5" style="stroke:#64748B;stroke-width:1.0;" width="2187" x="1033" y="341.4775"/><text fill="#000000" font-family="Microsoft YaHei" font-size="14" font-weight="bold" lengthAdjust="spacing" textLength="403" x="1925" y="358.291">backend/src/main/java/com/opencode/teachingplatform</text></g><!--cluster auth--><g id="cluster_auth"><rect fill="#F8FAFC" height="101" rx="2.5" ry="2.5" style="stroke:#64748B;stroke-width:1.0;" width="384" x="2812" y="386.4775"/><text fill="#000000" font-family="Microsoft YaHei" font-size="14" font-weight="bold" lengthAdjust="spacing" textLength="32" x="2988" y="403.291">auth</text></g><!--cluster common--><g id="cluster_common"><rect fill="#F8FAFC" height="101" rx="2.5" ry="2.5" style="stroke:#64748B;stroke-width:1.0;" width="235" x="2553" y="386.4775"/><text fill="#000000" font-family="Microsoft YaHei" font-size="14" font-weight="bold" lengthAdjust="spacing" textLength="62" x="2639.5" y="403.291">common</text></g><!--cluster lab--><g id="cluster_lab"><rect fill="#F8FAFC" height="209" rx="2.5" ry="2.5" style="stroke:#64748B;stroke-width:1.0;" width="400" x="2129" y="386.4775"/><text fill="#000000" font-family="Microsoft YaHei" font-size="14" font-weight="bold" lengthAdjust="spacing" textLength="21" x="2318.5" y="403.291">lab</text></g><!--cluster homework--><g id="cluster_homework"><rect fill="#F8FAFC" height="101" rx="2.5" ry="2.5" style="stroke:#64748B;stroke-width:1.0;" width="371" x="1734" y="386.4775"/><text fill="#000000" font-family="Microsoft YaHei" font-size="14" font-weight="bold" lengthAdjust="spacing" textLength="75" x="1882" y="403.291">homework</text></g><!--cluster exam--><g id="cluster_exam"><rect fill="#F8FAFC" height="101" rx="2.5" ry="2.5" style="stroke:#64748B;stroke-width:1.0;" width="371" x="1339" y="386.4775"/><text fill="#000000" font-family="Microsoft YaHei" font-size="14" font-weight="bold" lengthAdjust="spacing" textLength="38" x="1505.5" y="403.291">exam</text></g><!--cluster analysis--><g id="cluster_analysis"><rect fill="#F8FAFC" height="101" rx="2.5" ry="2.5" style="stroke:#64748B;stroke-width:1.0;" width="258" x="1057" y="386.4775"/><text fill="#000000" font-family="Microsoft YaHei" font-size="14" font-weight="bold" lengthAdjust="spacing" textLength="55" x="1158.5" y="403.291">analysis</text></g><!--entity front_request--><g id="elem_front_request"><rect fill="#F1F1F1" height="48.4775" rx="2.5" ry="2.5" style="stroke:#181818;stroke-width:0.5;" width="138" x="23" y="423.4775"/><rect fill="#F1F1F1" height="10" style="stroke:#181818;stroke-width:0.5;" width="15" x="141" y="428.4775"/><rect fill="#F1F1F1" height="2" style="stroke:#181818;stroke-width:0.5;" width="4" x="139" y="430.4775"/><rect fill="#F1F1F1" height="2" style="stroke:#181818;stroke-width:0.5;" width="4" x="139" y="434.4775"/><text fill="#000000" font-family="Microsoft YaHei" font-size="14" lengthAdjust="spacing" textLength="98" x="38" y="458.291">utils/request.ts</text></g><!--entity front_router--><g id="elem_front_router"><rect fill="#F1F1F1" height="48.4775" rx="2.5" ry="2.5" style="stroke:#181818;stroke-width:0.5;" width="91" x="47.5" y="128.4775"/><rect fill="#F1F1F1" height="10" style="stroke:#181818;stroke-width:0.5;" width="15" x="118.5" y="133.4775"/><rect fill="#F1F1F1" height="2" style="stroke:#181818;stroke-width:0.5;" width="4" x="116.5" y="135.4775"/><rect fill="#F1F1F1" height="2" style="stroke:#181818;stroke-width:0.5;" width="4" x="116.5" y="139.4775"/><text fill="#000000" font-family="Microsoft YaHei" font-size="14" lengthAdjust="spacing" textLength="51" x="62.5" y="163.291">index.ts</text></g><!--entity front_store_auth--><g id="elem_front_store_auth"><rect fill="#F1F1F1" height="48.4775" rx="2.5" ry="2.5" style="stroke:#181818;stroke-width:0.5;" width="85" x="47.5" y="253.4775"/><rect fill="#F1F1F1" height="10" style="stroke:#181818;stroke-width:0.5;" width="15" x="112.5" y="258.4775"/><rect fill="#F1F1F1" height="2" style="stroke:#181818;stroke-width:0.5;" width="4" x="110.5" y="260.4775"/><rect fill="#F1F1F1" height="2" style="stroke:#181818;stroke-width:0.5;" width="4" x="110.5" y="264.4775"/><text fill="#000000" font-family="Microsoft YaHei" font-size="14" lengthAdjust="spacing" textLength="45" x="62.5" y="288.291">auth.ts</text></g><!--entity front_api_auth--><g id="elem_front_api_auth"><rect fill="#F1F1F1" height="48.4775" rx="2.5" ry="2.5" style="stroke:#181818;stroke-width:0.5;" width="85" x="883.5" y="253.4775"/><rect fill="#F1F1F1" height="10" style="stroke:#181818;stroke-width:0.5;" width="15" x="948.5" y="258.4775"/><rect fill="#F1F1F1" height="2" style="stroke:#181818;stroke-width:0.5;" width="4" x="946.5" y="260.4775"/><rect fill="#F1F1F1" height="2" style="stroke:#181818;stroke-width:0.5;" width="4" x="946.5" y="264.4775"/><text fill="#000000" font-family="Microsoft YaHei" font-size="14" lengthAdjust="spacing" textLength="45" x="898.5" y="288.291">auth.ts</text></g><!--entity front_api_labs--><g id="elem_front_api_labs"><rect fill="#F1F1F1" height="48.4775" rx="2.5" ry="2.5" style="stroke:#181818;stroke-width:0.5;" width="81" x="767.5" y="253.4775"/><rect fill="#F1F1F1" height="10" style="stroke:#181818;stroke-width:0.5;" width="15" x="828.5" y="258.4775"/><rect fill="#F1F1F1" height="2" style="stroke:#181818;stroke-width:0.5;" width="4" x="826.5" y="260.4775"/><rect fill="#F1F1F1" height="2" style="stroke:#181818;stroke-width:0.5;" width="4" x="826.5" y="264.4775"/><text fill="#000000" font-family="Microsoft YaHei" font-size="14" lengthAdjust="spacing" textLength="41" x="782.5" y="288.291">labs.ts</text></g><!--entity front_api_homeworks--><g id="elem_front_api_homeworks"><rect fill="#F1F1F1" height="48.4775" rx="2.5" ry="2.5" style="stroke:#181818;stroke-width:0.5;" width="132" x="600" y="253.4775"/><rect fill="#F1F1F1" height="10" style="stroke:#181818;stroke-width:0.5;" width="15" x="712" y="258.4775"/><rect fill="#F1F1F1" height="2" style="stroke:#181818;stroke-width:0.5;" width="4" x="710" y="260.4775"/><rect fill="#F1F1F1" height="2" style="stroke:#181818;stroke-width:0.5;" width="4" x="710" y="264.4775"/><text fill="#000000" font-family="Microsoft YaHei" font-size="14" lengthAdjust="spacing" textLength="92" x="615" y="288.291">homeworks.ts</text></g><!--entity front_api_exams--><g id="elem_front_api_exams"><rect fill="#F1F1F1" height="48.4775" rx="2.5" ry="2.5" style="stroke:#181818;stroke-width:0.5;" width="96" x="469" y="253.4775"/><rect fill="#F1F1F1" height="10" style="stroke:#181818;stroke-width:0.5;" width="15" x="545" y="258.4775"/><rect fill="#F1F1F1" height="2" style="stroke:#181818;stroke-width:0.5;" width="4" x="543" y="260.4775"/><rect fill="#F1F1F1" height="2" style="stroke:#181818;stroke-width:0.5;" width="4" x="543" y="264.4775"/><text fill="#000000" font-family="Microsoft YaHei" font-size="14" lengthAdjust="spacing" textLength="56" x="484" y="288.291">exams.ts</text></g><!--entity front_api_teacher--><g id="elem_front_api_teacher"><rect fill="#F1F1F1" height="48.4775" rx="2.5" ry="2.5" style="stroke:#181818;stroke-width:0.5;" width="104" x="330" y="253.4775"/><rect fill="#F1F1F1" height="10" style="stroke:#181818;stroke-width:0.5;" width="15" x="414" y="258.4775"/><rect fill="#F1F1F1" height="2" style="stroke:#181818;stroke-width:0.5;" width="4" x="412" y="260.4775"/><rect fill="#F1F1F1" height="2" style="stroke:#181818;stroke-width:0.5;" width="4" x="412" y="264.4775"/><text fill="#000000" font-family="Microsoft YaHei" font-size="14" lengthAdjust="spacing" textLength="64" x="345" y="288.291">teacher.ts</text></g><!--entity front_api_student--><g id="elem_front_api_student"><rect fill="#F1F1F1" height="48.4775" rx="2.5" ry="2.5" style="stroke:#181818;stroke-width:0.5;" width="105" x="189.5" y="253.4775"/><rect fill="#F1F1F1" height="10" style="stroke:#181818;stroke-width:0.5;" width="15" x="274.5" y="258.4775"/><rect fill="#F1F1F1" height="2" style="stroke:#181818;stroke-width:0.5;" width="4" x="272.5" y="260.4775"/><rect fill="#F1F1F1" height="2" style="stroke:#181818;stroke-width:0.5;" width="4" x="272.5" y="264.4775"/><text fill="#000000" font-family="Microsoft YaHei" font-size="14" lengthAdjust="spacing" textLength="65" x="204.5" y="288.291">student.ts</text></g><!--entity front_views_teacher--><g id="elem_front_views_teacher"><rect fill="#F1F1F1" height="48.4775" rx="2.5" ry="2.5" style="stroke:#181818;stroke-width:0.5;" width="102" x="724" y="128.4775"/><rect fill="#F1F1F1" height="10" style="stroke:#181818;stroke-width:0.5;" width="15" x="806" y="133.4775"/><rect fill="#F1F1F1" height="2" style="stroke:#181818;stroke-width:0.5;" width="4" x="804" y="135.4775"/><rect fill="#F1F1F1" height="2" style="stroke:#181818;stroke-width:0.5;" width="4" x="804" y="139.4775"/><text fill="#000000" font-family="Microsoft YaHei" font-size="14" lengthAdjust="spacing" textLength="62" x="739" y="163.291">teacher/*</text></g><!--entity front_views_student--><g id="elem_front_views_student"><rect fill="#F1F1F1" height="48.4775" rx="2.5" ry="2.5" style="stroke:#181818;stroke-width:0.5;" width="103" x="585.5" y="128.4775"/><rect fill="#F1F1F1" height="10" style="stroke:#181818;stroke-width:0.5;" width="15" x="668.5" y="133.4775"/><rect fill="#F1F1F1" height="2" style="stroke:#181818;stroke-width:0.5;" width="4" x="666.5" y="135.4775"/><rect fill="#F1F1F1" height="2" style="stroke:#181818;stroke-width:0.5;" width="4" x="666.5" y="139.4775"/><text fill="#000000" font-family="Microsoft YaHei" font-size="14" lengthAdjust="spacing" textLength="63" x="600.5" y="163.291">student/*</text></g><!--entity front_login--><g id="elem_front_login"><rect fill="#F1F1F1" height="48.4775" rx="2.5" ry="2.5" style="stroke:#181818;stroke-width:0.5;" width="142" x="408" y="128.4775"/><rect fill="#F1F1F1" height="10" style="stroke:#181818;stroke-width:0.5;" width="15" x="530" y="133.4775"/><rect fill="#F1F1F1" height="2" style="stroke:#181818;stroke-width:0.5;" width="4" x="528" y="135.4775"/><rect fill="#F1F1F1" height="2" style="stroke:#181818;stroke-width:0.5;" width="4" x="528" y="139.4775"/><text fill="#000000" font-family="Microsoft YaHei" font-size="14" lengthAdjust="spacing" textLength="102" x="423" y="163.291">auth/Login.vue</text></g><!--entity front_profile--><g id="elem_front_profile"><rect fill="#F1F1F1" height="48.4775" rx="2.5" ry="2.5" style="stroke:#181818;stroke-width:0.5;" width="177" x="195.5" y="128.4775"/><rect fill="#F1F1F1" height="10" style="stroke:#181818;stroke-width:0.5;" width="15" x="352.5" y="133.4775"/><rect fill="#F1F1F1" height="2" style="stroke:#181818;stroke-width:0.5;" width="4" x="350.5" y="135.4775"/><rect fill="#F1F1F1" height="2" style="stroke:#181818;stroke-width:0.5;" width="4" x="350.5" y="139.4775"/><text fill="#000000" font-family="Microsoft YaHei" font-size="14" lengthAdjust="spacing" textLength="137" x="210.5" y="163.291">common/Profile.vue</text></g><!--entity back_auth_controller--><g id="elem_back_auth_controller"><rect fill="#F1F1F1" height="48.4775" rx="2.5" ry="2.5" style="stroke:#181818;stroke-width:0.5;" width="105" x="3074.5" y="423.4775"/><rect fill="#F1F1F1" height="10" style="stroke:#181818;stroke-width:0.5;" width="15" x="3159.5" y="428.4775"/><rect fill="#F1F1F1" height="2" style="stroke:#181818;stroke-width:0.5;" width="4" x="3157.5" y="430.4775"/><rect fill="#F1F1F1" height="2" style="stroke:#181818;stroke-width:0.5;" width="4" x="3157.5" y="434.4775"/><text fill="#000000" font-family="Microsoft YaHei" font-size="14" lengthAdjust="spacing" textLength="65" x="3089.5" y="458.291">controller</text></g><!--entity back_auth_service--><g id="elem_back_auth_service"><rect fill="#F1F1F1" height="48.4775" rx="2.5" ry="2.5" style="stroke:#181818;stroke-width:0.5;" width="85" x="2954.5" y="423.4775"/><rect fill="#F1F1F1" height="10" style="stroke:#181818;stroke-width:0.5;" width="15" x="3019.5" y="428.4775"/><rect fill="#F1F1F1" height="2" style="stroke:#181818;stroke-width:0.5;" width="4" x="3017.5" y="430.4775"/><rect fill="#F1F1F1" height="2" style="stroke:#181818;stroke-width:0.5;" width="4" x="3017.5" y="434.4775"/><text fill="#000000" font-family="Microsoft YaHei" font-size="14" lengthAdjust="spacing" textLength="45" x="2969.5" y="458.291">service</text></g><!--entity back_auth_security--><g id="elem_back_auth_security"><rect fill="#F1F1F1" height="48.4775" rx="2.5" ry="2.5" style="stroke:#181818;stroke-width:0.5;" width="91" x="2828.5" y="423.4775"/><rect fill="#F1F1F1" height="10" style="stroke:#181818;stroke-width:0.5;" width="15" x="2899.5" y="428.4775"/><rect fill="#F1F1F1" height="2" style="stroke:#181818;stroke-width:0.5;" width="4" x="2897.5" y="430.4775"/><rect fill="#F1F1F1" height="2" style="stroke:#181818;stroke-width:0.5;" width="4" x="2897.5" y="434.4775"/><text fill="#000000" font-family="Microsoft YaHei" font-size="14" lengthAdjust="spacing" textLength="51" x="2843.5" y="458.291">security</text></g><!--entity back_common_api--><g id="elem_back_common_api"><rect fill="#F1F1F1" height="48.4775" rx="2.5" ry="2.5" style="stroke:#181818;stroke-width:0.5;" width="61" x="2710.5" y="423.4775"/><rect fill="#F1F1F1" height="10" style="stroke:#181818;stroke-width:0.5;" width="15" x="2751.5" y="428.4775"/><rect fill="#F1F1F1" height="2" style="stroke:#181818;stroke-width:0.5;" width="4" x="2749.5" y="430.4775"/><rect fill="#F1F1F1" height="2" style="stroke:#181818;stroke-width:0.5;" width="4" x="2749.5" y="434.4775"/><text fill="#000000" font-family="Microsoft YaHei" font-size="14" lengthAdjust="spacing" textLength="21" x="2725.5" y="458.291">api</text></g><!--entity back_common_exception--><g id="elem_back_common_exception"><rect fill="#F1F1F1" height="48.4775" rx="2.5" ry="2.5" style="stroke:#181818;stroke-width:0.5;" width="106" x="2569" y="423.4775"/><rect fill="#F1F1F1" height="10" style="stroke:#181818;stroke-width:0.5;" width="15" x="2655" y="428.4775"/><rect fill="#F1F1F1" height="2" style="stroke:#181818;stroke-width:0.5;" width="4" x="2653" y="430.4775"/><rect fill="#F1F1F1" height="2" style="stroke:#181818;stroke-width:0.5;" width="4" x="2653" y="434.4775"/><text fill="#000000" font-family="Microsoft YaHei" font-size="14" lengthAdjust="spacing" textLength="66" x="2584" y="458.291">exception</text></g><!--entity back_lab_controller--><g id="elem_back_lab_controller"><rect fill="#F1F1F1" height="48.4775" rx="2.5" ry="2.5" style="stroke:#181818;stroke-width:0.5;" width="105" x="2145.5" y="423.4775"/><rect fill="#F1F1F1" height="10" style="stroke:#181818;stroke-width:0.5;" width="15" x="2230.5" y="428.4775"/><rect fill="#F1F1F1" height="2" style="stroke:#181818;stroke-width:0.5;" width="4" x="2228.5" y="430.4775"/><rect fill="#F1F1F1" height="2" style="stroke:#181818;stroke-width:0.5;" width="4" x="2228.5" y="434.4775"/><text fill="#000000" font-family="Microsoft YaHei" font-size="14" lengthAdjust="spacing" textLength="65" x="2160.5" y="458.291">controller</text></g><!--entity back_lab_service--><g id="elem_back_lab_service"><rect fill="#F1F1F1" height="48.4775" rx="2.5" ry="2.5" style="stroke:#181818;stroke-width:0.5;" width="85" x="2285.5" y="423.4775"/><rect fill="#F1F1F1" height="10" style="stroke:#181818;stroke-width:0.5;" width="15" x="2350.5" y="428.4775"/><rect fill="#F1F1F1" height="2" style="stroke:#181818;stroke-width:0.5;" width="4" x="2348.5" y="430.4775"/><rect fill="#F1F1F1" height="2" style="stroke:#181818;stroke-width:0.5;" width="4" x="2348.5" y="434.4775"/><text fill="#000000" font-family="Microsoft YaHei" font-size="14" lengthAdjust="spacing" textLength="45" x="2300.5" y="458.291">service</text></g><!--entity back_lab_repository--><g id="elem_back_lab_repository"><rect fill="#F1F1F1" height="48.4775" rx="2.5" ry="2.5" style="stroke:#181818;stroke-width:0.5;" width="107" x="2405.5" y="423.4775"/><rect fill="#F1F1F1" height="10" style="stroke:#181818;stroke-width:0.5;" width="15" x="2492.5" y="428.4775"/><rect fill="#F1F1F1" height="2" style="stroke:#181818;stroke-width:0.5;" width="4" x="2490.5" y="430.4775"/><rect fill="#F1F1F1" height="2" style="stroke:#181818;stroke-width:0.5;" width="4" x="2490.5" y="434.4775"/><text fill="#000000" font-family="Microsoft YaHei" font-size="14" lengthAdjust="spacing" textLength="67" x="2420.5" y="458.291">repository</text></g><!--entity back_lab_entity--><g id="elem_back_lab_entity"><rect fill="#F1F1F1" height="48.4775" rx="2.5" ry="2.5" style="stroke:#181818;stroke-width:0.5;" width="78" x="2289" y="531.4775"/><rect fill="#F1F1F1" height="10" style="stroke:#181818;stroke-width:0.5;" width="15" x="2347" y="536.4775"/><rect fill="#F1F1F1" height="2" style="stroke:#181818;stroke-width:0.5;" width="4" x="2345" y="538.4775"/><rect fill="#F1F1F1" height="2" style="stroke:#181818;stroke-width:0.5;" width="4" x="2345" y="542.4775"/><text fill="#000000" font-family="Microsoft YaHei" font-size="14" lengthAdjust="spacing" textLength="38" x="2304" y="566.291">entity</text></g><!--entity back_homework_controller--><g id="elem_back_homework_controller"><rect fill="#F1F1F1" height="48.4775" rx="2.5" ry="2.5" style="stroke:#181818;stroke-width:0.5;" width="105" x="1983.5" y="423.4775"/><rect fill="#F1F1F1" height="10" style="stroke:#181818;stroke-width:0.5;" width="15" x="2068.5" y="428.4775"/><rect fill="#F1F1F1" height="2" style="stroke:#181818;stroke-width:0.5;" width="4" x="2066.5" y="430.4775"/><rect fill="#F1F1F1" height="2" style="stroke:#181818;stroke-width:0.5;" width="4" x="2066.5" y="434.4775"/><text fill="#000000" font-family="Microsoft YaHei" font-size="14" lengthAdjust="spacing" textLength="65" x="1998.5" y="458.291">controller</text></g><!--entity back_homework_service--><g id="elem_back_homework_service"><rect fill="#F1F1F1" height="48.4775" rx="2.5" ry="2.5" style="stroke:#181818;stroke-width:0.5;" width="85" x="1863.5" y="423.4775"/><rect fill="#F1F1F1" height="10" style="stroke:#181818;stroke-width:0.5;" width="15" x="1928.5" y="428.4775"/><rect fill="#F1F1F1" height="2" style="stroke:#181818;stroke-width:0.5;" width="4" x="1926.5" y="430.4775"/><rect fill="#F1F1F1" height="2" style="stroke:#181818;stroke-width:0.5;" width="4" x="1926.5" y="434.4775"/><text fill="#000000" font-family="Microsoft YaHei" font-size="14" lengthAdjust="spacing" textLength="45" x="1878.5" y="458.291">service</text></g><!--entity back_homework_entity--><g id="elem_back_homework_entity"><rect fill="#F1F1F1" height="48.4775" rx="2.5" ry="2.5" style="stroke:#181818;stroke-width:0.5;" width="78" x="1750" y="423.4775"/><rect fill="#F1F1F1" height="10" style="stroke:#181818;stroke-width:0.5;" width="15" x="1808" y="428.4775"/><rect fill="#F1F1F1" height="2" style="stroke:#181818;stroke-width:0.5;" width="4" x="1806" y="430.4775"/><rect fill="#F1F1F1" height="2" style="stroke:#181818;stroke-width:0.5;" width="4" x="1806" y="434.4775"/><text fill="#000000" font-family="Microsoft YaHei" font-size="14" lengthAdjust="spacing" textLength="38" x="1765" y="458.291">entity</text></g><!--entity back_exam_controller--><g id="elem_back_exam_controller"><rect fill="#F1F1F1" height="48.4775" rx="2.5" ry="2.5" style="stroke:#181818;stroke-width:0.5;" width="105" x="1588.5" y="423.4775"/><rect fill="#F1F1F1" height="10" style="stroke:#181818;stroke-width:0.5;" width="15" x="1673.5" y="428.4775"/><rect fill="#F1F1F1" height="2" style="stroke:#181818;stroke-width:0.5;" width="4" x="1671.5" y="430.4775"/><rect fill="#F1F1F1" height="2" style="stroke:#181818;stroke-width:0.5;" width="4" x="1671.5" y="434.4775"/><text fill="#000000" font-family="Microsoft YaHei" font-size="14" lengthAdjust="spacing" textLength="65" x="1603.5" y="458.291">controller</text></g><!--entity back_exam_service--><g id="elem_back_exam_service"><rect fill="#F1F1F1" height="48.4775" rx="2.5" ry="2.5" style="stroke:#181818;stroke-width:0.5;" width="85" x="1468.5" y="423.4775"/><rect fill="#F1F1F1" height="10" style="stroke:#181818;stroke-width:0.5;" width="15" x="1533.5" y="428.4775"/><rect fill="#F1F1F1" height="2" style="stroke:#181818;stroke-width:0.5;" width="4" x="1531.5" y="430.4775"/><rect fill="#F1F1F1" height="2" style="stroke:#181818;stroke-width:0.5;" width="4" x="1531.5" y="434.4775"/><text fill="#000000" font-family="Microsoft YaHei" font-size="14" lengthAdjust="spacing" textLength="45" x="1483.5" y="458.291">service</text></g><!--entity back_exam_entity--><g id="elem_back_exam_entity"><rect fill="#F1F1F1" height="48.4775" rx="2.5" ry="2.5" style="stroke:#181818;stroke-width:0.5;" width="78" x="1355" y="423.4775"/><rect fill="#F1F1F1" height="10" style="stroke:#181818;stroke-width:0.5;" width="15" x="1413" y="428.4775"/><rect fill="#F1F1F1" height="2" style="stroke:#181818;stroke-width:0.5;" width="4" x="1411" y="430.4775"/><rect fill="#F1F1F1" height="2" style="stroke:#181818;stroke-width:0.5;" width="4" x="1411" y="434.4775"/><text fill="#000000" font-family="Microsoft YaHei" font-size="14" lengthAdjust="spacing" textLength="38" x="1370" y="458.291">entity</text></g><!--entity back_analysis_controller--><g id="elem_back_analysis_controller"><rect fill="#F1F1F1" height="48.4775" rx="2.5" ry="2.5" style="stroke:#181818;stroke-width:0.5;" width="105" x="1193.5" y="423.4775"/><rect fill="#F1F1F1" height="10" style="stroke:#181818;stroke-width:0.5;" width="15" x="1278.5" y="428.4775"/><rect fill="#F1F1F1" height="2" style="stroke:#181818;stroke-width:0.5;" width="4" x="1276.5" y="430.4775"/><rect fill="#F1F1F1" height="2" style="stroke:#181818;stroke-width:0.5;" width="4" x="1276.5" y="434.4775"/><text fill="#000000" font-family="Microsoft YaHei" font-size="14" lengthAdjust="spacing" textLength="65" x="1208.5" y="458.291">controller</text></g><!--entity back_analysis_service--><g id="elem_back_analysis_service"><rect fill="#F1F1F1" height="48.4775" rx="2.5" ry="2.5" style="stroke:#181818;stroke-width:0.5;" width="85" x="1073.5" y="423.4775"/><rect fill="#F1F1F1" height="10" style="stroke:#181818;stroke-width:0.5;" width="15" x="1138.5" y="428.4775"/><rect fill="#F1F1F1" height="2" style="stroke:#181818;stroke-width:0.5;" width="4" x="1136.5" y="430.4775"/><rect fill="#F1F1F1" height="2" style="stroke:#181818;stroke-width:0.5;" width="4" x="1136.5" y="434.4775"/><text fill="#000000" font-family="Microsoft YaHei" font-size="14" lengthAdjust="spacing" textLength="45" x="1088.5" y="458.291">service</text></g><!--link front_router to front_store_auth--><g id="link_front_router_front_store_auth"><path d="M92.44,176.6175 C91.9,198.6075 91.2475,225.4894 90.7075,247.4494 " fill="none" id="front_router-to-front_store_auth" style="stroke:#334155;stroke-width:1.0;"/><polygon fill="#334155" points="90.56,253.4475,94.78,244.5486,90.6829,248.4491,86.7825,244.3519,90.56,253.4475" style="stroke:#334155;stroke-width:1.0;"/></g><!--link front_store_auth to front_request--><g id="link_front_store_auth_front_request"><path d="M90.27,301.4875 C90.65,333.4775 91.269,385.078 91.649,417.208 " fill="none" id="front_store_auth-to-front_request" style="stroke:#334155;stroke-width:1.0;"/><polygon fill="#334155" points="91.72,423.2075,95.6133,414.1609,91.6609,418.2079,87.6138,414.2555,91.72,423.2075" style="stroke:#334155;stroke-width:1.0;"/></g><!--link front_views_teacher to front_api_teacher--><g id="link_front_views_teacher_front_api_teacher"><path d="M748.72,176.5875 C736.57,185.8275 721.44,195.4475 706,200.4775 C679.15,209.2175 477.99,197.4475 452,208.4775 C430.01,217.8075 414.7582,232.8023 402.1182,248.6023 " fill="none" id="front_views_teacher-to-front_api_teacher" style="stroke:#334155;stroke-width:1.0;"/><polygon fill="#334155" points="398.37,253.2875,407.1157,248.7585,401.4935,249.3832,400.8688,243.7609,398.37,253.2875" style="stroke:#334155;stroke-width:1.0;"/></g><!--link front_views_student to front_api_student--><g id="link_front_views_student_front_api_student"><path d="M610.72,176.5875 C598.57,185.8275 583.44,195.4575 568,200.4775 C541.04,209.2475 339.14,197.4975 313,208.4775 C290.81,217.7975 275.3158,232.8227 262.4658,248.6227 " fill="none" id="front_views_student-to-front_api_student" style="stroke:#334155;stroke-width:1.0;"/><polygon fill="#334155" points="258.68,253.2775,267.4619,248.8191,261.8348,249.3985,261.2554,243.7714,258.68,253.2775" style="stroke:#334155;stroke-width:1.0;"/></g><!--link front_api_auth to back_auth_controller--><g id="link_front_api_auth_back_auth_controller"><path d="M968.9,278.4275 C1262.21,278.2675 2963.16,279.6275 3057,333.4775 C3091.03,353.0075 3108.7553,390.7618 3118.1553,417.7318 " fill="none" id="front_api_auth-to-back_auth_controller" style="stroke:#334155;stroke-width:1.0;"/><polygon fill="#334155" points="3120.13,423.3975,3120.9451,413.5825,3118.4844,418.6761,3113.3908,416.2154,3120.13,423.3975" style="stroke:#334155;stroke-width:1.0;"/></g><!--link front_api_labs to back_lab_controller--><g id="link_front_api_labs_back_lab_controller"><path d="M829.44,301.7175 C839.52,310.9775 852.33,320.5875 866,325.4775 C898.4,337.0775 2073.92,318.6875 2105,333.4775 C2144,352.0475 2169.3865,390.4834 2183.9465,417.7834 " fill="none" id="front_api_labs-to-back_lab_controller" style="stroke:#334155;stroke-width:1.0;"/><polygon fill="#334155" points="2186.77,423.0775,2186.0641,413.254,2184.4171,418.6658,2179.0053,417.0187,2186.77,423.0775" style="stroke:#334155;stroke-width:1.0;"/></g><!--link front_api_homeworks to back_homework_controller--><g id="link_front_api_homeworks_back_homework_controller"><path d="M698.26,301.5775 C713.24,310.9275 731.74,320.6575 750,325.4775 C782.66,334.1075 1936.54,316.9475 1966,333.4775 C2000.21,352.6775 2017.8937,390.5354 2027.2337,417.6154 " fill="none" id="front_api_homeworks-to-back_homework_controller" style="stroke:#334155;stroke-width:1.0;"/><polygon fill="#334155" points="2029.19,423.2875,2030.0369,413.4752,2027.5597,418.5608,2022.4741,416.0836,2029.19,423.2875" style="stroke:#334155;stroke-width:1.0;"/></g><!--link front_api_exams to back_exam_controller--><g id="link_front_api_exams_back_exam_controller"><path d="M541.62,301.4975 C553.25,310.8475 567.88,320.5775 583,325.4775 C609.11,333.9375 1547.08,320.0275 1571,333.4775 C1605.2,352.7075 1622.893,390.5557 1632.233,417.6257 " fill="none" id="front_api_exams-to-back_exam_controller" style="stroke:#334155;stroke-width:1.0;"/><polygon fill="#334155" points="1634.19,423.2975,1635.0358,413.4851,1632.5592,418.571,1627.4733,416.0944,1634.19,423.2975" style="stroke:#334155;stroke-width:1.0;"/></g><!--SRC=[ZPHBYnD14CVlyocQU1Ds1zcixadmYOAAu4aM2PsPcgHDJ_VOtPDia822XtZm0HuNHFGW2E9LZEYNsIJU_0hspFIyUeQ9fuJw_whhCLKb9uH5ME0G-H3WcAgRdAbxE0JKkqiymIKF57g8Rm7fER9WvHZxV4RO20MOIgWe4VOcU0GFr9m24k0fp4Qq2bmHWi-kSSe5EdTmqBzmUDZqlig53y905_kN-aV35aZ_Z0IFcM_0u2Z0WUSuYYWT-sprQVlX-NRrRlF-nURPwi_dvVhqrz-Vo_MRR-kthxUhhvlJtvjN7y- -_q2thzz0c-MNL7_fEEPzr0k4xWKmtvN2ww6d3aA5fECg49aHeMF2V3ZPL_8HmXAbReECqFAYwYSL5o0BFnohSTqj1GQ9tNR54UdmqshkfNMAXxAf9zPC7_CGPbnCMg12oaWumM4BbPepGW7snY2QZ14oIghO1wQQb17iQgS4PcMVp5Fk-OfpIhG6QS7AAAPxxXq-8cn_6aE5fOajOpmUXfovzmKF20MBYpAhoVauLeHALy2J6AHLeJ4wYyfO3VKVCrLkY0bp7-CfTdL0bqV0FEw3crQbrokYM0LSXDRq9GKKlV5q7C4f1P76JLvF9s5G2gOx8AR40uiorXpnOa7KlC5aPliZPKqgfp8YfMEc9Pyu7oGF8aKuQo25OZ-lvxMpIgtlBZA1QZKAYBWaUitcTQYqcuIPgdKYOJARdMU-Cft9vj3kZ0kobhQTJa6rvvGiQ6S-2R0xbvJgp2CbsdF03DEv9B9xL0tq7-EQasK-YsInglSMxUrTRbvIsr2XyWLjkIaLgdhEMiwAHUR7fdwPKwXrE-iNkkIi-MwvqINRDbxMkIvX-zl_0m00]--></g></svg>