<?xml version="1.0" encoding="us-ascii" standalone="no"?><svg xmlns="http://www.w3.org/2000/svg" xmlns:xlink="http://www.w3.org/1999/xlink" contentStyleType="text/css" height="841px" preserveAspectRatio="none" style="width:716px;height:841px;background:#FFFFFF;" version="1.1" viewBox="0 0 716 841" width="716px" zoomAndPan="magnify"><defs/><g><text fill="#000000" font-family="Microsoft YaHei" font-size="14" font-weight="bold" lengthAdjust="spacing" textLength="224" x="239.25" y="24.8135">&#20851;&#38190;&#27169;&#22359;&#20851;&#31995;&#22270;&#65306;&#26435;&#38480;&#12289;&#31572;&#39064;&#12289;&#20998;&#26512;</text><!--cluster ????--><g id="cluster_&#21069;&#31471;&#39029;&#38754;"><path d="M122,45.6416 L179,45.6416 A3.75,3.75 0 0 1 181.5,48.1416 L188.5,70.1191 L707,70.1191 A2.5,2.5 0 0 1 709.5,72.6191 L709.5,153.1416 A2.5,2.5 0 0 1 707,155.6416 L122,155.6416 A2.5,2.5 0 0 1 119.5,153.1416 L119.5,48.1416 A2.5,2.5 0 0 1 122,45.6416 " fill="none" style="stroke:#000000;stroke-width:1.5;"/><line style="stroke:#000000;stroke-width:1.5;" x1="119.5" x2="188.5" y1="70.1191" y2="70.1191"/><text fill="#000000" font-family="Microsoft YaHei" font-size="14" font-weight="bold" lengthAdjust="spacing" textLength="56" x="123.5" y="62.4551">&#21069;&#31471;&#39029;&#38754;</text></g><!--cluster ?????--><g id="cluster_&#21518;&#31471;&#25511;&#21046;&#22120;"><path d="M121,188.6416 L192,188.6416 A3.75,3.75 0 0 1 194.5,191.1416 L201.5,213.1191 L641,213.1191 A2.5,2.5 0 0 1 643.5,215.6191 L643.5,314.1416 A2.5,2.5 0 0 1 641,316.6416 L121,316.6416 A2.5,2.5 0 0 1 118.5,314.1416 L118.5,191.1416 A2.5,2.5 0 0 1 121,188.6416 " fill="none" style="stroke:#000000;stroke-width:1.5;"/><line style="stroke:#000000;stroke-width:1.5;" x1="118.5" x2="201.5" y1="213.1191" y2="213.1191"/><text fill="#000000" font-family="Microsoft YaHei" font-size="14" font-weight="bold" lengthAdjust="spacing" textLength="70" x="122.5" y="205.4551">&#21518;&#31471;&#25511;&#21046;&#22120;</text></g><!--cluster ????--><g id="cluster_&#21518;&#31471;&#26381;&#21153;"><path d="M180,349.6416 L237,349.6416 A3.75,3.75 0 0 1 239.5,352.1416 L246.5,374.1191 L361,374.1191 A2.5,2.5 0 0 1 363.5,376.6191 L363.5,709.1416 A2.5,2.5 0 0 1 361,711.6416 L180,711.6416 A2.5,2.5 0 0 1 177.5,709.1416 L177.5,352.1416 A2.5,2.5 0 0 1 180,349.6416 " fill="none" style="stroke:#000000;stroke-width:1.5;"/><line style="stroke:#000000;stroke-width:1.5;" x1="177.5" x2="246.5" y1="374.1191" y2="374.1191"/><text fill="#000000" font-family="Microsoft YaHei" font-size="14" font-weight="bold" lengthAdjust="spacing" textLength="56" x="181.5" y="366.4551">&#21518;&#31471;&#26381;&#21153;</text></g><!--entity UIAuth--><g id="elem_UIAuth"><rect fill="#F1F1F1" height="38.4775" rx="2.5" ry="2.5" style="stroke:#181818;stroke-width:0.5;" width="106" x="135.5" y="92.1416"/><text fill="#000000" font-family="Microsoft YaHei" font-size="14" lengthAdjust="spacing" textLength="86" x="145.5" y="116.9551">&#30331;&#24405; / Profile</text></g><!--entity UIAnswer--><g id="elem_UIAnswer"><rect fill="#F1F1F1" height="38.4775" rx="2.5" ry="2.5" style="stroke:#181818;stroke-width:0.5;" width="188" x="276.5" y="92.1416"/><text fill="#000000" font-family="Microsoft YaHei" font-size="14" lengthAdjust="spacing" textLength="168" x="286.5" y="116.9551">&#23398;&#29983;&#23454;&#39564; / &#20316;&#19994; / &#32771;&#35797;&#39029;&#38754;</text></g><!--entity UIAnalytics--><g id="elem_UIAnalytics"><rect fill="#F1F1F1" height="56.9551" rx="2.5" ry="2.5" style="stroke:#181818;stroke-width:0.5;" width="194" x="499.5" y="82.6416"/><text fill="#000000" font-family="Microsoft YaHei" font-size="14" lengthAdjust="spacing" textLength="174" x="509.5" y="107.4551">&#25945;&#24072; Dashboard / Analysis</text><text fill="#000000" font-family="Microsoft YaHei" font-size="14" lengthAdjust="spacing" textLength="163" x="509.5" y="125.9326">&#23398;&#29983; Dashboard / Scores</text></g><!--entity CAuth--><g id="elem_CAuth"><rect fill="#F1F1F1" height="38.4775" rx="2.5" ry="2.5" style="stroke:#181818;stroke-width:0.5;" width="120" x="134.5" y="244.1416"/><text fill="#000000" font-family="Microsoft YaHei" font-size="14" lengthAdjust="spacing" textLength="100" x="144.5" y="268.9551">AuthController</text></g><!--entity CAnswer--><g id="elem_CAnswer"><rect fill="#F1F1F1" height="75.4326" rx="2.5" ry="2.5" style="stroke:#181818;stroke-width:0.5;" width="161" x="290" y="225.6416"/><text fill="#000000" font-family="Microsoft YaHei" font-size="14" lengthAdjust="spacing" textLength="91" x="300" y="250.4551">LabController</text><text fill="#000000" font-family="Microsoft YaHei" font-size="14" lengthAdjust="spacing" textLength="141" x="300" y="268.9326">HomeworkController</text><text fill="#000000" font-family="Microsoft YaHei" font-size="14" lengthAdjust="spacing" textLength="103" x="300" y="287.4102">ExamController</text></g><!--entity CAnalytics--><g id="elem_CAnalytics"><rect fill="#F1F1F1" height="38.4775" rx="2.5" ry="2.5" style="stroke:#181818;stroke-width:0.5;" width="141" x="486" y="244.1416"/><text fill="#000000" font-family="Microsoft YaHei" font-size="14" lengthAdjust="spacing" textLength="121" x="496" y="268.9551">AnalysisController</text></g><!--entity SAuth--><g id="elem_SAuth"><rect fill="#F1F1F1" height="38.4775" rx="2.5" ry="2.5" style="stroke:#181818;stroke-width:0.5;" width="100" x="193.5" y="386.6416"/><text fill="#000000" font-family="Microsoft YaHei" font-size="14" lengthAdjust="spacing" textLength="80" x="203.5" y="411.4551">AuthService</text></g><!--entity SAnswer--><g id="elem_SAnswer"><rect fill="#F1F1F1" height="75.4326" rx="2.5" ry="2.5" style="stroke:#181818;stroke-width:0.5;" width="141" x="194" y="503.6416"/><text fill="#000000" font-family="Microsoft YaHei" font-size="14" lengthAdjust="spacing" textLength="71" x="204" y="528.4551">LabService</text><text fill="#000000" font-family="Microsoft YaHei" font-size="14" lengthAdjust="spacing" textLength="121" x="204" y="546.9326">HomeworkService</text><text fill="#000000" font-family="Microsoft YaHei" font-size="14" lengthAdjust="spacing" textLength="83" x="204" y="565.4102">ExamService</text></g><!--entity SAnalytics--><g id="elem_SAnalytics"><rect fill="#F1F1F1" height="38.4775" rx="2.5" ry="2.5" style="stroke:#181818;stroke-width:0.5;" width="121" x="226" y="657.6416"/><text fill="#000000" font-family="Microsoft YaHei" font-size="14" lengthAdjust="spacing" textLength="101" x="236" y="682.4551">AnalysisService</text></g><!--entity CoreDB--><g id="elem_CoreDB"><path d="M6,768.6416 C6,758.6416 172.5,758.6416 172.5,758.6416 C172.5,758.6416 339,758.6416 339,768.6416 L339,814.5967 C339,824.5967 172.5,824.5967 172.5,824.5967 C172.5,824.5967 6,824.5967 6,814.5967 L6,768.6416 " fill="#F1F1F1" style="stroke:#181818;stroke-width:0.5;"/><path d="M6,768.6416 C6,778.6416 172.5,778.6416 172.5,778.6416 C172.5,778.6416 339,778.6416 339,768.6416 " fill="none" style="stroke:#181818;stroke-width:0.5;"/><text fill="#000000" font-family="Microsoft YaHei" font-size="14" lengthAdjust="spacing" textLength="42" x="16" y="797.4551">&#26680;&#24515;&#34920;</text><text fill="#000000" font-family="Microsoft YaHei" font-size="14" lengthAdjust="spacing" textLength="313" x="16" y="815.9326">sys_user / *submission / *answer / score_record</text></g><!--link UIAuth to CAuth--><g id="link_UIAuth_CAuth"><path d="M189.22,130.2316 C190.38,159.0616 192.3812,209.1164 193.5312,237.9864 " fill="none" id="UIAuth-to-CAuth" style="stroke:#334155;stroke-width:1.0;"/><polygon fill="#334155" points="193.77,243.9816,197.4086,234.8295,193.571,238.9856,189.415,235.1479,193.77,243.9816" style="stroke:#334155;stroke-width:1.0;"/></g><!--link UIAnswer to CAnswer--><g id="link_UIAnswer_CAnswer"><path d="M370.5,130.2316 C370.5,153.6916 370.5,189.1516 370.5,219.3516 " fill="none" id="UIAnswer-to-CAnswer" style="stroke:#334155;stroke-width:1.0;"/><polygon fill="#334155" points="370.5,225.3516,374.5,216.3516,370.5,220.3516,366.5,216.3516,370.5,225.3516" style="stroke:#334155;stroke-width:1.0;"/></g><!--link UIAnalytics to CAnalytics--><g id="link_UIAnalytics_CAnalytics"><path d="M589.16,139.6516 C581.09,169.9316 569.8857,211.9541 562.9457,237.9841 " fill="none" id="UIAnalytics-to-CAnalytics" style="stroke:#334155;stroke-width:1.0;"/><polygon fill="#334155" points="561.4,243.7816,567.5835,236.1158,562.6881,238.9504,559.8536,234.0549,561.4,243.7816" style="stroke:#334155;stroke-width:1.0;"/></g><!--link CAuth to SAuth--><g id="link_CAuth_SAuth"><path d="M200.81,282.2216 C210.21,309.2016 225.8433,354.0266 235.2433,380.9666 " fill="none" id="CAuth-to-SAuth" style="stroke:#334155;stroke-width:1.0;"/><polygon fill="#334155" points="237.22,386.6316,238.0317,376.8162,235.5728,381.9107,230.4783,379.4518,237.22,386.6316" style="stroke:#334155;stroke-width:1.0;"/></g><!--link CAnswer to SAnswer--><g id="link_CAnswer_SAnswer"><path d="M374.86,300.7416 C378.33,344.6616 378.46,419.1716 348.5,473.6416 C342.31,484.8916 337.8589,490.9317 328.0789,499.5617 " fill="none" id="CAnswer-to-SAnswer" style="stroke:#334155;stroke-width:1.0;"/><polygon fill="#334155" points="323.58,503.5316,332.9749,500.576,327.3291,500.2234,327.6818,494.5775,323.58,503.5316" style="stroke:#334155;stroke-width:1.0;"/></g><!--link CAnalytics to SAnalytics--><g id="link_CAnalytics_SAnalytics"><path d="M551.96,282.3916 C536.82,339.9916 482.97,520.4616 378.5,627.6416 C366.3,640.1516 355.5337,647.4532 340.1637,654.9432 " fill="none" id="CAnalytics-to-SAnalytics" style="stroke:#334155;stroke-width:1.0;"/><polygon fill="#334155" points="334.77,657.5716,344.6127,657.2248,339.2647,655.3813,341.1082,650.0332,334.77,657.5716" style="stroke:#334155;stroke-width:1.0;"/></g><!--link SAuth to CoreDB--><g id="link_SAuth_CoreDB"><path d="M225.89,424.8616 C209.56,443.1116 186.34,472.8416 176.5,503.6416 C148.22,592.1716 158.1494,698.0951 166.0994,752.3051 " fill="none" id="SAuth-to-CoreDB" style="stroke:#334155;stroke-width:1.0;"/><polygon fill="#334155" points="166.97,758.2416,169.6218,748.7564,166.2445,753.2945,161.7064,749.9172,166.97,758.2416" style="stroke:#334155;stroke-width:1.0;"/></g><!--link SAnswer to CoreDB--><g id="link_SAnswer_CoreDB"><path d="M244.53,578.8216 C232.93,601.1516 218.65,630.5116 208.5,657.6416 C195.93,691.2516 187.0785,725.2851 180.7885,752.5551 " fill="none" id="SAnswer-to-CoreDB" style="stroke:#334155;stroke-width:1.0;"/><polygon fill="#334155" points="179.44,758.4016,185.3605,750.5309,180.5638,753.5295,177.5651,748.7328,179.44,758.4016" style="stroke:#334155;stroke-width:1.0;"/></g><!--link SAnalytics to CoreDB--><g id="link_SAnalytics_CoreDB"><path d="M268.18,695.8016 C251.19,712.6416 229.7713,733.8677 209.2913,754.1677 " fill="none" id="SAnalytics-to-CoreDB" style="stroke:#334155;stroke-width:1.0;"/><polygon fill="#334155" points="205.03,758.3916,214.2379,754.8967,208.5811,754.8717,208.6061,749.2149,205.03,758.3916" style="stroke:#334155;stroke-width:1.0;"/></g><!--link SAnswer to SAnalytics--><g id="link_SAnswer_SAnalytics"><path d="M270.57,578.9716 C274.77,604.4416 279.1946,631.3214 282.5046,651.4114 " fill="none" id="SAnswer-to-SAnalytics" style="stroke:#334155;stroke-width:1.0;"/><polygon fill="#334155" points="283.48,657.3316,285.9637,647.8011,282.6672,652.3981,278.0701,649.1016,283.48,657.3316" style="stroke:#334155;stroke-width:1.0;"/><text fill="#000000" font-family="Microsoft YaHei" font-size="13" lengthAdjust="spacing" textLength="91" x="278.5" y="623.397">&#25104;&#32489;&#19982;&#29366;&#24577;&#27785;&#28096;</text></g><!--link SAuth to SAnswer--><g id="link_SAuth_SAnswer"><path d="M233.3,424.8516 C227.05,438.3316 221.02,457.1316 225.5,473.6416 C228.27,483.8416 230.0871,488.8642 235.3571,498.1442 " fill="none" id="SAuth-to-SAnswer" style="stroke:#334155;stroke-width:1.0;"/><polygon fill="#334155" points="238.32,503.3616,237.3539,493.5602,235.8509,499.0138,230.3974,497.5108,238.32,503.3616" style="stroke:#334155;stroke-width:1.0;"/><text fill="#000000" font-family="Microsoft YaHei" font-size="13" lengthAdjust="spacing" textLength="117" x="226.5" y="469.397">&#24403;&#21069;&#29992;&#25143;&#19982;&#35282;&#33394;&#36793;&#30028;</text></g><!--SRC=[VLDTQnD157sVNp74Dw68rBxqGOXRfOAAiFWW1CfaTv8isSo4cOqnY90IbAIq8TG4JMsgwOEDIbjeiOt4r1zZPZ-U_0jEkjbarvI-tRdtt7lEcJl3imR98uPoKCSfL32j1vHOJr0EmzXZGsEKqvG5dwDLRCG0ds9v1kcqQ90qJ26Jur15exay9PXOgbKoCMHOin19cs584cdPDAC5eYlKf0mMCuOLhiSPeqM_T6DnySxjfIK0BCEIqyIRKwzvPFUwelDUnixfG7oy-Fjhn-vKl7RZJtdTEMnw-nza8AflxRq607d9XTBIZAXjET-FlUuFhxCVWwy0d2c5CQSz4CCMl0MVCfeoJ1o3YCDd3-C5AnC5YiClJlEJEDhplcrA-6YuE-hloC0jLzpZLZ3TRoQyY5cqtMwrHRyALn3F92bYkkoC4sIMkC4Jn9yTAQeQPPXF1qgaPMWSl0xxQjIbBxj-8AfdejsRipRseCYLCcgQc5sEKkPzFKB96IX1LcaE5odBXdFtNwBStA0hF0Q6vh7NoD_T4XlTAxMhcBqmD7yZwfN29uYPwcbYB3dQVutU_u0XiJgoK19ngTR-t1U_Aswtbo2ynDSA73EvfPkyaCmPd1kKZ4_eaaH6VBozDVa3ADFzEv3dbNi0-2yBBYpSdUmYU2sJbAyojF4W7uW2odI0VoTAg3zmgKJRGvw0EkFt9QbX_cagmZxHhaQP0iWojAiDP_1rrAyx6sTsUTq-gTddvH1JqBWCnV3T-3SsUtRrNEBTWsstTk9U_7HQc-0V]--></g></svg>