<?xml version="1.0" encoding="us-ascii" standalone="no"?><svg xmlns="http://www.w3.org/2000/svg" xmlns:xlink="http://www.w3.org/1999/xlink" contentStyleType="text/css" height="539px" preserveAspectRatio="none" style="width:601px;height:539px;background:#FFFFFF;" version="1.1" viewBox="0 0 601 539" width="601px" zoomAndPan="magnify"><defs/><g><text fill="#000000" font-family="Microsoft YaHei" font-size="14" font-weight="bold" lengthAdjust="spacing" textLength="168" x="209.75" y="24.8135">&#20998;&#23618;&#26550;&#26500;&#19982;&#32844;&#36131;&#20998;&#31163;&#31034;&#24847;&#22270;</text><!--entity Presentation--><g id="elem_Presentation"><rect fill="#F8FAFC" height="56.9551" rx="2.5" ry="2.5" style="stroke:#475569;stroke-width:0.5;" width="168" x="7" y="193.4775"/><text fill="#000000" font-family="Microsoft YaHei" font-size="14" lengthAdjust="spacing" textLength="42" x="17" y="218.291">&#34920;&#31034;&#23618;</text><text fill="#000000" font-family="Microsoft YaHei" font-size="14" lengthAdjust="spacing" textLength="148" x="17" y="236.7686">Vue &#39029;&#38754; / &#36335;&#30001; / Pinia</text></g><!--entity Controller--><g id="elem_Controller"><rect fill="#F8FAFC" height="56.9551" rx="2.5" ry="2.5" style="stroke:#475569;stroke-width:0.5;" width="87" x="122.5" y="46.4775"/><text fill="#000000" font-family="Microsoft YaHei" font-size="14" lengthAdjust="spacing" textLength="42" x="132.5" y="71.291">&#25509;&#21475;&#23618;</text><text fill="#000000" font-family="Microsoft YaHei" font-size="14" lengthAdjust="spacing" textLength="67" x="132.5" y="89.7686">Controller</text></g><!--entity Service--><g id="elem_Service"><rect fill="#F8FAFC" height="56.9551" rx="2.5" ry="2.5" style="stroke:#475569;stroke-width:0.5;" width="67" x="255.5" y="193.4775"/><text fill="#000000" font-family="Microsoft YaHei" font-size="14" lengthAdjust="spacing" textLength="42" x="265.5" y="218.291">&#19994;&#21153;&#23618;</text><text fill="#000000" font-family="Microsoft YaHei" font-size="14" lengthAdjust="spacing" textLength="47" x="265.5" y="236.7686">Service</text></g><!--entity Repository--><g id="elem_Repository"><rect fill="#F8FAFC" height="56.9551" rx="2.5" ry="2.5" style="stroke:#475569;stroke-width:0.5;" width="91" x="179.5" y="340.4775"/><text fill="#000000" font-family="Microsoft YaHei" font-size="14" lengthAdjust="spacing" textLength="42" x="189.5" y="365.291">&#25345;&#20037;&#23618;</text><text fill="#000000" font-family="Microsoft YaHei" font-size="14" lengthAdjust="spacing" textLength="71" x="189.5" y="383.7686">Repository</text></g><!--entity Domain--><g id="elem_Domain"><rect fill="#F8FAFC" height="56.9551" rx="2.5" ry="2.5" style="stroke:#475569;stroke-width:0.5;" width="102" x="290" y="476.4775"/><text fill="#000000" font-family="Microsoft YaHei" font-size="14" lengthAdjust="spacing" textLength="56" x="300" y="501.291">&#39046;&#22495;&#23545;&#35937;</text><text fill="#000000" font-family="Microsoft YaHei" font-size="14" lengthAdjust="spacing" textLength="82" x="300" y="519.7686">Entity / DTO</text></g><!--entity Database--><g id="elem_Database"><rect fill="#F8FAFC" height="56.9551" rx="2.5" ry="2.5" style="stroke:#475569;stroke-width:0.5;" width="148" x="107" y="476.4775"/><text fill="#000000" font-family="Microsoft YaHei" font-size="14" lengthAdjust="spacing" textLength="42" x="117" y="501.291">&#25968;&#25454;&#24211;</text><text fill="#000000" font-family="Microsoft YaHei" font-size="14" lengthAdjust="spacing" textLength="128" x="117" y="519.7686">Migration + Tables</text></g><g id="elem_GMN15"><path d="M357.5,182.4775 L357.5,217.9775 L322.6,221.9775 L357.5,225.9775 L357.5,261.1084 A0,0 0 0 0 357.5,261.1084 L594.5,261.1084 A0,0 0 0 0 594.5,261.1084 L594.5,192.4775 L584.5,182.4775 L357.5,182.4775 A0,0 0 0 0 357.5,182.4775 " fill="#FEFFDD" style="stroke:#181818;stroke-width:0.5;"/><path d="M584.5,182.4775 L584.5,192.4775 L594.5,192.4775 L584.5,182.4775 " fill="#FEFFDD" style="stroke:#181818;stroke-width:0.5;"/><text fill="#000000" font-family="Microsoft YaHei" font-size="13" lengthAdjust="spacing" textLength="65" x="363.5" y="201.2329">&#20856;&#22411;&#27169;&#24335;&#65306;</text><text fill="#000000" font-family="Microsoft YaHei" font-size="13" lengthAdjust="spacing" textLength="166" x="363.5" y="218.3906">- &#25511;&#21046;&#22120;&#21482;&#21462;&#24403;&#21069;&#29992;&#25143;&#24182;&#36716;&#21457;</text><text fill="#000000" font-family="Microsoft YaHei" font-size="13" lengthAdjust="spacing" textLength="149" x="363.5" y="235.5483">- &#19994;&#21153;&#35268;&#21017;&#38598;&#20013;&#22312; Service</text><text fill="#000000" font-family="Microsoft YaHei" font-size="13" lengthAdjust="spacing" textLength="216" x="363.5" y="252.7061">- &#32479;&#19968;&#21709;&#24212;&#19982;&#24322;&#24120;&#30001; common &#23618;&#25910;&#21475;</text></g><!--link Presentation to Controller--><g id="link_Presentation_Controller"><path d="M105.62,193.3575 C112.19,180.8875 120.02,165.9575 127,152.4775 C135.36,136.3275 141.8944,123.5478 149.2844,108.9878 " fill="none" id="Presentation-to-Controller" style="stroke:#181818;stroke-width:1.0;"/><polygon fill="#181818" points="152,103.6375,144.3598,109.8526,149.737,108.0961,151.4935,113.4734,152,103.6375" style="stroke:#181818;stroke-width:1.0;"/><text fill="#000000" font-family="Microsoft YaHei" font-size="13" lengthAdjust="spacing" textLength="81" x="138" y="148.2329">HTTP / JSON</text></g><!--link Controller to Presentation--><g id="link_Controller_Presentation"><path d="M122.4,83.2375 C93.37,90.5775 57.3,105.1075 39,133.4775 C26.26,153.2275 36.6071,171.7759 53.5171,189.1659 " fill="none" id="Controller-to-Presentation" style="stroke:#181818;stroke-width:1.0;"/><polygon fill="#181818" points="57.7,193.4675,54.2934,184.2266,54.2143,189.8829,48.558,189.8037,57.7,193.4675" style="stroke:#181818;stroke-width:1.0;"/><text fill="#000000" font-family="Microsoft YaHei" font-size="13" lengthAdjust="spacing" textLength="78" x="40" y="148.2329">ApiResponse</text></g><!--link Controller to Service--><g id="link_Controller_Service"><path d="M198.5,103.6975 C208.41,112.7675 219.04,123.1775 228,133.4775 C244.41,152.3375 257.2106,170.6 268.7406,188.42 " fill="none" id="Controller-to-Service" style="stroke:#181818;stroke-width:1.0;"/><polygon fill="#181818" points="272,193.4575,270.4692,183.7284,269.2838,189.2596,263.7526,188.0742,272,193.4575" style="stroke:#181818;stroke-width:1.0;"/><text fill="#000000" font-family="Microsoft YaHei" font-size="13" lengthAdjust="spacing" textLength="122" x="244" y="148.2329">&#24403;&#21069;&#29992;&#25143; + &#19994;&#21153;&#35831;&#27714;</text></g><!--link Service to Repository--><g id="link_Service_Repository"><path d="M269.64,250.7075 C261.81,262.8175 253.19,277.4375 247,291.4775 C240.09,307.1575 236.1643,319.7765 232.4543,334.6265 " fill="none" id="Service-to-Repository" style="stroke:#181818;stroke-width:1.0;"/><polygon fill="#181818" points="231,340.4475,237.0622,332.6854,232.2119,335.5966,229.3007,330.7464,231,340.4475" style="stroke:#181818;stroke-width:1.0;"/><text fill="#000000" font-family="Microsoft YaHei" font-size="13" lengthAdjust="spacing" textLength="66" x="248" y="306.2329">&#26597;&#35810; / &#20445;&#23384;</text></g><!--link Repository to Domain--><g id="link_Repository_Domain"><path d="M234.13,397.7575 C240.13,413.2075 249.08,432.1475 261,446.4775 C270.3,457.6575 277.3702,464.2426 289.1802,472.7426 " fill="none" id="Repository-to-Domain" style="stroke:#181818;stroke-width:1.0;"/><polygon fill="#181818" points="294.05,476.2475,289.0819,467.7435,289.9918,473.3267,284.4086,474.2367,294.05,476.2475" style="stroke:#181818;stroke-width:1.0;"/><text fill="#000000" font-family="Microsoft YaHei" font-size="13" lengthAdjust="spacing" textLength="52" x="262" y="442.2329">&#26144;&#23556;&#23454;&#20307;</text></g><!--link Repository to Database--><g id="link_Repository_Database"><path d="M196.62,397.7575 C189.47,406.5175 182.77,416.7375 179,427.4775 C173.55,443.0275 173.1492,455.4986 174.8992,470.3786 " fill="none" id="Repository-to-Database" style="stroke:#181818;stroke-width:1.0;"/><polygon fill="#181818" points="175.6,476.3375,178.5214,466.9319,175.016,471.3718,170.5762,467.8664,175.6,476.3375" style="stroke:#181818;stroke-width:1.0;"/><text fill="#000000" font-family="Microsoft YaHei" font-size="13" lengthAdjust="spacing" textLength="39" x="180" y="442.2329">&#25345;&#20037;&#21270;</text></g><!--link Service to Domain--><g id="link_Service_Domain"><path d="M303.43,250.5975 C309.19,262.8175 315.32,277.5475 319,291.4775 C336.08,356.2075 339.8886,429.2988 340.7186,470.3188 " fill="none" id="Service-to-Domain" style="stroke:#181818;stroke-width:1.0;"/><polygon fill="#181818" points="340.84,476.3175,344.6571,467.2385,340.7389,471.3186,336.6587,467.4003,340.84,476.3175" style="stroke:#181818;stroke-width:1.0;"/><text fill="#000000" font-family="Microsoft YaHei" font-size="13" lengthAdjust="spacing" textLength="52" x="337" y="374.2329">&#32452;&#35013;&#32467;&#26524;</text></g><!--SRC=[PPDDJnD16CVlyoaczMWQB-8B1nC53J416cXCJBWCxMoPi9rfPhSQOao4558LQ4mhuRMr8D8OeJJHiYsjVfbzjjkJNy7PRMstUfkPv_Uy_FypOompdYAI976SQYIjcqy4DsT8akBGD8j9OGZDnC_956KXP0nOOud4nKl64rWZka434KbZ9k49dU9N2ED79BQSa2BDunD25nBVqEvfH8jv4I7ZLFPFRzyT6xjp7xr6o6IcIeNi1jJMd6BTAMPiQzjTtNI_dwZ3pfVhpkUcayd1mK-4Xgr2RhcY0YfdWJzBKzmj_-WU7UDRsBsgTWerjOWmpaW84mD793KeDud910-MSBPF8NVYbvXG5aYXwrJw6SDjaBUjVNXNzlbvAb-m6FNX_dgaykQgtLZtoJcQ4WOpXLpnuU4so7UFDw1KWch3hPKN-6EkF5bH4YQZitxIf4WIDZhwnqjdwmAQ-GK-pHBIbuPluYXPrAdHoo4cMIJgeb1GFWw77mJKuN4y5Or6LAkdyxCpA13mkBum1K4x3s-tEeMAaxrIRNf6kDKhfxQ6_b9Unb2TId9AfsxLknBxrn6Sxw90q6DxeZnkznDSPk2YQBVp_q5z5HxMytHpPwJZe4hdEkEUh7Ukyqxny5yX8mwCuuSfDaUDbE2UEroO54kMM3Anq0Pt2UiM5DyxbJAqShzR-oYCdUqpoDPXhmAvhv3R2Je2ZRhR_WQv3mhhMtEMWUnUzs33jixXi38e6rPZbcph3UIte5bGxnnQQs1PteEDYMHIJUTzWa9TFKj4UHnxmw4_]--></g></svg>