<?xml version="1.0" encoding="us-ascii" standalone="no"?><svg xmlns="http://www.w3.org/2000/svg" xmlns:xlink="http://www.w3.org/1999/xlink" contentStyleType="text/css" height="1216px" preserveAspectRatio="none" style="width:481px;height:1216px;background:#FFFFFF;" version="1.1" viewBox="0 0 481 1216" width="481px" zoomAndPan="magnify"><defs/><g><text fill="#000000" font-family="Microsoft YaHei" font-size="14" font-weight="bold" lengthAdjust="spacing" textLength="98" x="190.25" y="34.8135">&#32771;&#35797;&#38381;&#29615;&#27891;&#36947;&#22270;</text><rect fill="none" height="23.7568" style="stroke:none;stroke-width:1.0;" width="448.5" x="15" y="52.6885"/><ellipse cx="79" cy="91.4453" fill="#222222" rx="10" ry="10" style="stroke:#222222;stroke-width:1.0;"/><rect fill="#F8FAFC" height="35.8379" rx="12.5" ry="12.5" style="stroke:#475569;stroke-width:0.5;" width="68" x="45" y="121.4453"/><text fill="#000000" font-family="Microsoft YaHei" font-size="12" lengthAdjust="spacing" textLength="48" x="55" y="144.1426">&#21019;&#24314;&#32771;&#35797;</text><rect fill="#F8FAFC" height="35.8379" rx="12.5" ry="12.5" style="stroke:#475569;stroke-width:0.5;" width="68" x="45" y="177.2832"/><text fill="#000000" font-family="Microsoft YaHei" font-size="12" lengthAdjust="spacing" textLength="48" x="55" y="199.9805">&#37197;&#32622;&#35797;&#39064;</text><rect fill="#F8FAFC" height="35.8379" rx="12.5" ry="12.5" style="stroke:#475569;stroke-width:0.5;" width="68" x="45" y="233.1211"/><text fill="#000000" font-family="Microsoft YaHei" font-size="12" lengthAdjust="spacing" textLength="48" x="55" y="255.8184">&#21457;&#24067;&#32771;&#35797;</text><rect fill="#F8FAFC" height="35.8379" rx="12.5" ry="12.5" style="stroke:#475569;stroke-width:0.5;" width="116" x="21" y="847.3379"/><text fill="#000000" font-family="Microsoft YaHei" font-size="12" lengthAdjust="spacing" textLength="96" x="31" y="870.0352">&#26597;&#30475;&#32771;&#35797;&#32467;&#26524;&#21015;&#34920;</text><rect fill="#F8FAFC" height="35.8379" rx="12.5" ry="12.5" style="stroke:#475569;stroke-width:0.5;" width="92" x="33" y="903.1758"/><text fill="#000000" font-family="Microsoft YaHei" font-size="12" lengthAdjust="spacing" textLength="72" x="43" y="925.873">&#25171;&#24320;&#25552;&#20132;&#35814;&#24773;</text><rect fill="#F8FAFC" height="35.8379" rx="12.5" ry="12.5" style="stroke:#475569;stroke-width:0.5;" width="80" x="39" y="959.0137"/><text fill="#000000" font-family="Microsoft YaHei" font-size="12" lengthAdjust="spacing" textLength="60" x="49" y="981.7109">&#35780;&#20998;&#20027;&#35266;&#39064;</text><line style="stroke:#000000;stroke-width:1.5;" x1="15" x2="15" y1="52.6885" y2="1204.3652"/><rect fill="#F8FAFC" height="35.8379" rx="12.5" ry="12.5" style="stroke:#475569;stroke-width:0.5;" width="92" x="177" y="288.959"/><text fill="#000000" font-family="Microsoft YaHei" font-size="12" lengthAdjust="spacing" textLength="72" x="187" y="311.6563">&#26597;&#30475;&#32771;&#35797;&#21015;&#34920;</text><rect fill="#F8FAFC" height="35.8379" rx="12.5" ry="12.5" style="stroke:#475569;stroke-width:0.5;" width="68" x="189" y="344.7969"/><text fill="#000000" font-family="Microsoft YaHei" font-size="12" lengthAdjust="spacing" textLength="48" x="199" y="367.4941">&#24320;&#22987;&#32771;&#35797;</text><rect fill="#F8FAFC" height="35.8379" rx="12.5" ry="12.5" style="stroke:#475569;stroke-width:0.5;" width="44" x="201" y="568.1484"/><text fill="#000000" font-family="Microsoft YaHei" font-size="12" lengthAdjust="spacing" textLength="24" x="211" y="590.8457">&#31572;&#39064;</text><rect fill="#F8FAFC" height="35.8379" rx="12.5" ry="12.5" style="stroke:#475569;stroke-width:0.5;" width="44" x="201" y="623.9863"/><text fill="#000000" font-family="Microsoft YaHei" font-size="12" lengthAdjust="spacing" textLength="24" x="211" y="646.6836">&#20132;&#21367;</text><rect fill="#F8FAFC" height="35.8379" rx="12.5" ry="12.5" style="stroke:#475569;stroke-width:0.5;" width="152" x="147" y="1126.5273"/><text fill="#000000" font-family="Microsoft YaHei" font-size="12" lengthAdjust="spacing" textLength="132" x="157" y="1149.2246">&#26597;&#30475;&#32771;&#35797;&#32467;&#26524;&#19982;&#24471;&#20998;&#26126;&#32454;</text><ellipse cx="223" cy="1193.3652" fill="none" rx="11" ry="11" style="stroke:#222222;stroke-width:1.0;"/><ellipse cx="223" cy="1193.3652" fill="#222222" rx="6" ry="6" style="stroke:#222222;stroke-width:1.0;"/><line style="stroke:#000000;stroke-width:1.5;" x1="141" x2="141" y1="52.6885" y2="1204.3652"/><rect fill="#F8FAFC" height="35.8379" rx="12.5" ry="12.5" style="stroke:#475569;stroke-width:0.5;" width="149" x="309" y="400.6348"/><text fill="#000000" font-family="Microsoft YaHei" font-size="12" lengthAdjust="spacing" textLength="129" x="319" y="423.332">&#21019;&#24314; exam_submission</text><rect fill="#F8FAFC" height="35.8379" rx="12.5" ry="12.5" style="stroke:#475569;stroke-width:0.5;" width="110" x="328.5" y="456.4727"/><text fill="#000000" font-family="Microsoft YaHei" font-size="12" lengthAdjust="spacing" textLength="90" x="338.5" y="479.1699">&#35745;&#31639; deadlineAt</text><rect fill="#F8FAFC" height="35.8379" rx="12.5" ry="12.5" style="stroke:#475569;stroke-width:0.5;" width="140" x="313.5" y="512.3105"/><text fill="#000000" font-family="Microsoft YaHei" font-size="12" lengthAdjust="spacing" textLength="120" x="323.5" y="535.0078">&#36820;&#22238;&#20498;&#35745;&#26102;&#19982;&#32771;&#35797;&#35814;&#24773;</text><rect fill="#F8FAFC" height="35.8379" rx="12.5" ry="12.5" style="stroke:#475569;stroke-width:0.5;" width="125" x="321" y="679.8242"/><text fill="#000000" font-family="Microsoft YaHei" font-size="12" lengthAdjust="spacing" textLength="105" x="331" y="702.5215">&#20445;&#23384; exam_answer</text><rect fill="#F8FAFC" height="35.8379" rx="12.5" ry="12.5" style="stroke:#475569;stroke-width:0.5;" width="104" x="331.5" y="735.6621"/><text fill="#000000" font-family="Microsoft YaHei" font-size="12" lengthAdjust="spacing" textLength="84" x="341.5" y="758.3594">&#33258;&#21160;&#35780;&#20998;&#23458;&#35266;&#39064;</text><rect fill="#F8FAFC" height="35.8379" rx="12.5" ry="12.5" style="stroke:#475569;stroke-width:0.5;" width="92" x="337.5" y="791.5"/><text fill="#000000" font-family="Microsoft YaHei" font-size="12" lengthAdjust="spacing" textLength="72" x="347.5" y="814.1973">&#26356;&#26032;&#25552;&#20132;&#29366;&#24577;</text><rect fill="#F8FAFC" height="35.8379" rx="12.5" ry="12.5" style="stroke:#475569;stroke-width:0.5;" width="68" x="349.5" y="1014.8516"/><text fill="#000000" font-family="Microsoft YaHei" font-size="12" lengthAdjust="spacing" textLength="48" x="359.5" y="1037.5488">&#30830;&#35748;&#24635;&#20998;</text><rect fill="#F8FAFC" height="35.8379" rx="12.5" ry="12.5" style="stroke:#475569;stroke-width:0.5;" width="124" x="321.5" y="1070.6895"/><text fill="#000000" font-family="Microsoft YaHei" font-size="12" lengthAdjust="spacing" textLength="104" x="331.5" y="1093.3867">&#20889;&#20837; score_record</text><line style="stroke:#000000;stroke-width:1.5;" x1="303" x2="303" y1="52.6885" y2="1204.3652"/><line style="stroke:#000000;stroke-width:1.5;" x1="462" x2="462" y1="52.6885" y2="1204.3652"/><line style="stroke:#334155;stroke-width:1.0;" x1="79" x2="79" y1="101.4453" y2="121.4453"/><polygon fill="#334155" points="75,111.4453,79,121.4453,83,111.4453,79,115.4453" style="stroke:#334155;stroke-width:1.0;"/><line style="stroke:#334155;stroke-width:1.0;" x1="79" x2="79" y1="157.2832" y2="177.2832"/><polygon fill="#334155" points="75,167.2832,79,177.2832,83,167.2832,79,171.2832" style="stroke:#334155;stroke-width:1.0;"/><line style="stroke:#334155;stroke-width:1.0;" x1="79" x2="79" y1="213.1211" y2="233.1211"/><polygon fill="#334155" points="75,223.1211,79,233.1211,83,223.1211,79,227.1211" style="stroke:#334155;stroke-width:1.0;"/><line style="stroke:#334155;stroke-width:1.0;" x1="79" x2="79" y1="883.1758" y2="903.1758"/><polygon fill="#334155" points="75,893.1758,79,903.1758,83,893.1758,79,897.1758" style="stroke:#334155;stroke-width:1.0;"/><line style="stroke:#334155;stroke-width:1.0;" x1="79" x2="79" y1="939.0137" y2="959.0137"/><polygon fill="#334155" points="75,949.0137,79,959.0137,83,949.0137,79,953.0137" style="stroke:#334155;stroke-width:1.0;"/><line style="stroke:#334155;stroke-width:1.0;" x1="223" x2="223" y1="324.7969" y2="344.7969"/><polygon fill="#334155" points="219,334.7969,223,344.7969,227,334.7969,223,338.7969" style="stroke:#334155;stroke-width:1.0;"/><line style="stroke:#334155;stroke-width:1.0;" x1="223" x2="223" y1="603.9863" y2="623.9863"/><polygon fill="#334155" points="219,613.9863,223,623.9863,227,613.9863,223,617.9863" style="stroke:#334155;stroke-width:1.0;"/><line style="stroke:#334155;stroke-width:1.0;" x1="223" x2="223" y1="1162.3652" y2="1182.3652"/><polygon fill="#334155" points="219,1172.3652,223,1182.3652,227,1172.3652,223,1176.3652" style="stroke:#334155;stroke-width:1.0;"/><line style="stroke:#334155;stroke-width:1.0;" x1="383.5" x2="383.5" y1="436.4727" y2="456.4727"/><polygon fill="#334155" points="379.5,446.4727,383.5,456.4727,387.5,446.4727,383.5,450.4727" style="stroke:#334155;stroke-width:1.0;"/><line style="stroke:#334155;stroke-width:1.0;" x1="383.5" x2="383.5" y1="492.3105" y2="512.3105"/><polygon fill="#334155" points="379.5,502.3105,383.5,512.3105,387.5,502.3105,383.5,506.3105" style="stroke:#334155;stroke-width:1.0;"/><line style="stroke:#334155;stroke-width:1.0;" x1="383.5" x2="383.5" y1="715.6621" y2="735.6621"/><polygon fill="#334155" points="379.5,725.6621,383.5,735.6621,387.5,725.6621,383.5,729.6621" style="stroke:#334155;stroke-width:1.0;"/><line style="stroke:#334155;stroke-width:1.0;" x1="383.5" x2="383.5" y1="771.5" y2="791.5"/><polygon fill="#334155" points="379.5,781.5,383.5,791.5,387.5,781.5,383.5,785.5" style="stroke:#334155;stroke-width:1.0;"/><line style="stroke:#334155;stroke-width:1.0;" x1="383.5" x2="383.5" y1="1050.6895" y2="1070.6895"/><polygon fill="#334155" points="379.5,1060.6895,383.5,1070.6895,387.5,1060.6895,383.5,1064.6895" style="stroke:#334155;stroke-width:1.0;"/><line style="stroke:#334155;stroke-width:1.0;" x1="79" x2="79" y1="268.959" y2="273.959"/><line style="stroke:#334155;stroke-width:1.0;" x1="79" x2="223" y1="273.959" y2="273.959"/><line style="stroke:#334155;stroke-width:1.0;" x1="223" x2="223" y1="273.959" y2="288.959"/><polygon fill="#334155" points="219,278.959,223,288.959,227,278.959,223,282.959" style="stroke:#334155;stroke-width:1.0;"/><line style="stroke:#334155;stroke-width:1.0;" x1="223" x2="223" y1="380.6348" y2="385.6348"/><line style="stroke:#334155;stroke-width:1.0;" x1="223" x2="383.5" y1="385.6348" y2="385.6348"/><line style="stroke:#334155;stroke-width:1.0;" x1="383.5" x2="383.5" y1="385.6348" y2="400.6348"/><polygon fill="#334155" points="379.5,390.6348,383.5,400.6348,387.5,390.6348,383.5,394.6348" style="stroke:#334155;stroke-width:1.0;"/><line style="stroke:#334155;stroke-width:1.0;" x1="383.5" x2="383.5" y1="548.1484" y2="553.1484"/><line style="stroke:#334155;stroke-width:1.0;" x1="383.5" x2="223" y1="553.1484" y2="553.1484"/><line style="stroke:#334155;stroke-width:1.0;" x1="223" x2="223" y1="553.1484" y2="568.1484"/><polygon fill="#334155" points="219,558.1484,223,568.1484,227,558.1484,223,562.1484" style="stroke:#334155;stroke-width:1.0;"/><line style="stroke:#334155;stroke-width:1.0;" x1="223" x2="223" y1="659.8242" y2="664.8242"/><line style="stroke:#334155;stroke-width:1.0;" x1="223" x2="383.5" y1="664.8242" y2="664.8242"/><line style="stroke:#334155;stroke-width:1.0;" x1="383.5" x2="383.5" y1="664.8242" y2="679.8242"/><polygon fill="#334155" points="379.5,669.8242,383.5,679.8242,387.5,669.8242,383.5,673.8242" style="stroke:#334155;stroke-width:1.0;"/><line style="stroke:#334155;stroke-width:1.0;" x1="383.5" x2="383.5" y1="827.3379" y2="832.3379"/><line style="stroke:#334155;stroke-width:1.0;" x1="383.5" x2="79" y1="832.3379" y2="832.3379"/><line style="stroke:#334155;stroke-width:1.0;" x1="79" x2="79" y1="832.3379" y2="847.3379"/><polygon fill="#334155" points="75,837.3379,79,847.3379,83,837.3379,79,841.3379" style="stroke:#334155;stroke-width:1.0;"/><line style="stroke:#334155;stroke-width:1.0;" x1="79" x2="79" y1="994.8516" y2="999.8516"/><line style="stroke:#334155;stroke-width:1.0;" x1="79" x2="383.5" y1="999.8516" y2="999.8516"/><line style="stroke:#334155;stroke-width:1.0;" x1="383.5" x2="383.5" y1="999.8516" y2="1014.8516"/><polygon fill="#334155" points="379.5,1004.8516,383.5,1014.8516,387.5,1004.8516,383.5,1008.8516" style="stroke:#334155;stroke-width:1.0;"/><line style="stroke:#334155;stroke-width:1.0;" x1="383.5" x2="383.5" y1="1106.5273" y2="1111.5273"/><line style="stroke:#334155;stroke-width:1.0;" x1="383.5" x2="223" y1="1111.5273" y2="1111.5273"/><line style="stroke:#334155;stroke-width:1.0;" x1="223" x2="223" y1="1111.5273" y2="1126.5273"/><polygon fill="#334155" points="219,1116.5273,223,1126.5273,227,1116.5273,223,1120.5273" style="stroke:#334155;stroke-width:1.0;"/><text fill="#000000" font-family="Microsoft YaHei" font-size="18" lengthAdjust="spacing" textLength="36" x="60" y="71.7344">&#25945;&#24072;</text><text fill="#000000" font-family="Microsoft YaHei" font-size="18" lengthAdjust="spacing" textLength="36" x="204" y="71.7344">&#23398;&#29983;</text><text fill="#000000" font-family="Microsoft YaHei" font-size="18" lengthAdjust="spacing" textLength="36" x="364.5" y="71.7344">&#31995;&#32479;</text><!--SRC=[TL3BRXCn5DtxAwpo1QWDZtHLa2esi6TLcHbFiJePLxP3G0HfIaW9hPe2IPbKwKEf-X9I9aX19Uf0-pEnFVaBF79JaWKho_USSy-vXw-GO1KnL80kzb3H5uiq4CzG0SEPfyHXb5DFmEVe2IOpWDzo-KlaqX89bg67V8ud4EG8yeg8D_0jWF0HSbQM6Iq6xcFgKmRlU0yyv3aPGfcBsSrqxdukT- -XcIumHaitmzdPkRkv77W7W232np0DAsblPnHrTRsd-ltHMaEshm0egvrTEQYL0HU82P2NjRPCBYrv7kH7rItz9yw4HotpbTjVvA0oHa5PTazryx0CykhmHEzjMa3MehHpdh5_X_9iynzRznETP6nh0l5hL5ZYnHS5mZcXWL6aSKV7aQaIkJu9y8B8PjTDsJwGuLS3gkXYEAZRZMdlL5MgKobqjsbp3Y-FvTQlAS_XzRxijgmd2dW9isptn-zouppjVP2rTHaVfMVlhLwrVwflFzJsPxD8RroeS6r-eggfQtNIK0TxjpUhJmrpjbME4-QjmN2GZ0qcSkbEdCR7AamC8-jiVLTMJo1tACDB39l7_M_HrjeK8gyYerQjkaxC3Yxewby0]--></g></svg>