<?xml version="1.0" encoding="us-ascii" standalone="no"?><svg xmlns="http://www.w3.org/2000/svg" xmlns:xlink="http://www.w3.org/1999/xlink" contentStyleType="text/css" height="1160px" preserveAspectRatio="none" style="width:563px;height:1160px;background:#FFFFFF;" version="1.1" viewBox="0 0 563 1160" width="563px" zoomAndPan="magnify"><defs/><g><text fill="#000000" font-family="Microsoft YaHei" font-size="14" font-weight="bold" lengthAdjust="spacing" textLength="98" x="231.25" y="34.8135">&#23454;&#39564;&#38381;&#29615;&#27891;&#36947;&#22270;</text><rect fill="none" height="23.7568" style="stroke:none;stroke-width:1.0;" width="530.5" x="15" y="52.6885"/><ellipse cx="85" cy="91.4453" fill="#222222" rx="10" ry="10" style="stroke:#222222;stroke-width:1.0;"/><rect fill="#F8FAFC" height="35.8379" rx="12.5" ry="12.5" style="stroke:#475569;stroke-width:0.5;" width="68" x="51" y="121.4453"/><text fill="#000000" font-family="Microsoft YaHei" font-size="12" lengthAdjust="spacing" textLength="48" x="61" y="144.1426">&#21019;&#24314;&#23454;&#39564;</text><rect fill="#F8FAFC" height="35.8379" rx="12.5" ry="12.5" style="stroke:#475569;stroke-width:0.5;" width="92" x="39" y="177.2832"/><text fill="#000000" font-family="Microsoft YaHei" font-size="12" lengthAdjust="spacing" textLength="72" x="49" y="199.9805">&#37197;&#32622;&#23454;&#39564;&#27493;&#39588;</text><rect fill="#F8FAFC" height="35.8379" rx="12.5" ry="12.5" style="stroke:#475569;stroke-width:0.5;" width="68" x="51" y="233.1211"/><text fill="#000000" font-family="Microsoft YaHei" font-size="12" lengthAdjust="spacing" textLength="48" x="61" y="255.8184">&#21457;&#24067;&#23454;&#39564;</text><rect fill="#F8FAFC" height="35.8379" rx="12.5" ry="12.5" style="stroke:#475569;stroke-width:0.5;" width="116" x="27" y="791.5"/><text fill="#000000" font-family="Microsoft YaHei" font-size="12" lengthAdjust="spacing" textLength="96" x="37" y="814.1973">&#26597;&#30475;&#23454;&#39564;&#25253;&#21578;&#21015;&#34920;</text><rect fill="#F8FAFC" height="35.8379" rx="12.5" ry="12.5" style="stroke:#475569;stroke-width:0.5;" width="116" x="27" y="847.3379"/><text fill="#000000" font-family="Microsoft YaHei" font-size="12" lengthAdjust="spacing" textLength="96" x="37" y="870.0352">&#25171;&#24320;&#23454;&#39564;&#25253;&#21578;&#35814;&#24773;</text><rect fill="#F8FAFC" height="35.8379" rx="12.5" ry="12.5" style="stroke:#475569;stroke-width:0.5;" width="128" x="21" y="903.1758"/><text fill="#000000" font-family="Microsoft YaHei" font-size="12" lengthAdjust="spacing" textLength="108" x="31" y="925.873">&#32473;&#20986;&#25945;&#24072;&#35780;&#20998;&#19982;&#35780;&#35821;</text><line style="stroke:#000000;stroke-width:1.5;" x1="15" x2="15" y1="52.6885" y2="1148.5273"/><rect fill="#F8FAFC" height="35.8379" rx="12.5" ry="12.5" style="stroke:#475569;stroke-width:0.5;" width="92" x="177" y="288.959"/><text fill="#000000" font-family="Microsoft YaHei" font-size="12" lengthAdjust="spacing" textLength="72" x="187" y="311.6563">&#36827;&#20837;&#23454;&#39564;&#21015;&#34920;</text><rect fill="#F8FAFC" height="35.8379" rx="12.5" ry="12.5" style="stroke:#475569;stroke-width:0.5;" width="128" x="159" y="344.7969"/><text fill="#000000" font-family="Microsoft YaHei" font-size="12" lengthAdjust="spacing" textLength="108" x="169" y="367.4941">&#26597;&#30475;&#23454;&#39564;&#35814;&#24773;&#19982;&#27493;&#39588;</text><rect fill="#F8FAFC" height="35.8379" rx="12.5" ry="12.5" style="stroke:#475569;stroke-width:0.5;" width="92" x="177" y="456.4727"/><text fill="#000000" font-family="Microsoft YaHei" font-size="12" lengthAdjust="spacing" textLength="72" x="187" y="479.1699">&#36880;&#27493;&#22635;&#20889;&#31572;&#26696;</text><rect fill="#F8FAFC" height="35.8379" rx="12.5" ry="12.5" style="stroke:#475569;stroke-width:0.5;" width="92" x="177" y="512.3105"/><text fill="#000000" font-family="Microsoft YaHei" font-size="12" lengthAdjust="spacing" textLength="72" x="187" y="535.0078">&#20445;&#23384;&#27493;&#39588;&#31572;&#26696;</text><rect fill="#F8FAFC" height="35.8379" rx="12.5" ry="12.5" style="stroke:#475569;stroke-width:0.5;" width="92" x="177" y="623.9863"/><text fill="#000000" font-family="Microsoft YaHei" font-size="12" lengthAdjust="spacing" textLength="72" x="187" y="646.6836">&#27491;&#24335;&#25552;&#20132;&#23454;&#39564;</text><rect fill="#F8FAFC" height="35.8379" rx="12.5" ry="12.5" style="stroke:#475569;stroke-width:0.5;" width="128" x="159" y="1070.6895"/><text fill="#000000" font-family="Microsoft YaHei" font-size="12" lengthAdjust="spacing" textLength="108" x="169" y="1093.3867">&#26597;&#30475;&#23454;&#39564;&#21453;&#39304;&#19982;&#25104;&#32489;</text><ellipse cx="223" cy="1137.5273" fill="none" rx="11" ry="11" style="stroke:#222222;stroke-width:1.0;"/><ellipse cx="223" cy="1137.5273" fill="#222222" rx="6" ry="6" style="stroke:#222222;stroke-width:1.0;"/><line style="stroke:#000000;stroke-width:1.5;" x1="153" x2="153" y1="52.6885" y2="1148.5273"/><rect fill="#F8FAFC" height="35.8379" rx="12.5" ry="12.5" style="stroke:#475569;stroke-width:0.5;" width="176" x="330.5" y="400.6348"/><text fill="#000000" font-family="Microsoft YaHei" font-size="12" lengthAdjust="spacing" textLength="156" x="340.5" y="423.332">&#36820;&#22238;&#23454;&#39564;&#35814;&#24773;&#19982;&#24050;&#26377;&#25552;&#20132;&#29366;&#24577;</text><rect fill="#F8FAFC" height="35.8379" rx="12.5" ry="12.5" style="stroke:#475569;stroke-width:0.5;" width="243" x="297" y="568.1484"/><text fill="#000000" font-family="Microsoft YaHei" font-size="12" lengthAdjust="spacing" textLength="223" x="307" y="590.8457">&#20889;&#20837; lab_submission / lab_step_answer</text><rect fill="#F8FAFC" height="35.8379" rx="12.5" ry="12.5" style="stroke:#475569;stroke-width:0.5;" width="178" x="329.5" y="679.8242"/><text fill="#000000" font-family="Microsoft YaHei" font-size="12" lengthAdjust="spacing" textLength="158" x="339.5" y="702.5215">&#26356;&#26032;&#25552;&#20132;&#29366;&#24577;&#20026; SUBMITTED</text><rect fill="#F8FAFC" height="35.8379" rx="12.5" ry="12.5" style="stroke:#475569;stroke-width:0.5;" width="176" x="330.5" y="735.6621"/><text fill="#000000" font-family="Microsoft YaHei" font-size="12" lengthAdjust="spacing" textLength="156" x="340.5" y="758.3594">&#25191;&#34892;&#33258;&#21160;&#35780;&#20998;&#25110;&#29983;&#25104;&#24314;&#35758;&#35780;&#20998;</text><rect fill="#F8FAFC" height="35.8379" rx="12.5" ry="12.5" style="stroke:#475569;stroke-width:0.5;" width="158" x="339.5" y="959.0137"/><text fill="#000000" font-family="Microsoft YaHei" font-size="12" lengthAdjust="spacing" textLength="138" x="349.5" y="981.7109">&#26356;&#26032;&#23454;&#39564;&#25253;&#21578;&#20026; GRADED</text><rect fill="#F8FAFC" height="35.8379" rx="12.5" ry="12.5" style="stroke:#475569;stroke-width:0.5;" width="124" x="356.5" y="1014.8516"/><text fill="#000000" font-family="Microsoft YaHei" font-size="12" lengthAdjust="spacing" textLength="104" x="366.5" y="1037.5488">&#20889;&#20837; score_record</text><line style="stroke:#000000;stroke-width:1.5;" x1="291" x2="291" y1="52.6885" y2="1148.5273"/><line style="stroke:#000000;stroke-width:1.5;" x1="544" x2="544" y1="52.6885" y2="1148.5273"/><line style="stroke:#334155;stroke-width:1.0;" x1="85" x2="85" y1="101.4453" y2="121.4453"/><polygon fill="#334155" points="81,111.4453,85,121.4453,89,111.4453,85,115.4453" style="stroke:#334155;stroke-width:1.0;"/><line style="stroke:#334155;stroke-width:1.0;" x1="85" x2="85" y1="157.2832" y2="177.2832"/><polygon fill="#334155" points="81,167.2832,85,177.2832,89,167.2832,85,171.2832" style="stroke:#334155;stroke-width:1.0;"/><line style="stroke:#334155;stroke-width:1.0;" x1="85" x2="85" y1="213.1211" y2="233.1211"/><polygon fill="#334155" points="81,223.1211,85,233.1211,89,223.1211,85,227.1211" style="stroke:#334155;stroke-width:1.0;"/><line style="stroke:#334155;stroke-width:1.0;" x1="85" x2="85" y1="827.3379" y2="847.3379"/><polygon fill="#334155" points="81,837.3379,85,847.3379,89,837.3379,85,841.3379" style="stroke:#334155;stroke-width:1.0;"/><line style="stroke:#334155;stroke-width:1.0;" x1="85" x2="85" y1="883.1758" y2="903.1758"/><polygon fill="#334155" points="81,893.1758,85,903.1758,89,893.1758,85,897.1758" style="stroke:#334155;stroke-width:1.0;"/><line style="stroke:#334155;stroke-width:1.0;" x1="223" x2="223" y1="324.7969" y2="344.7969"/><polygon fill="#334155" points="219,334.7969,223,344.7969,227,334.7969,223,338.7969" style="stroke:#334155;stroke-width:1.0;"/><line style="stroke:#334155;stroke-width:1.0;" x1="223" x2="223" y1="492.3105" y2="512.3105"/><polygon fill="#334155" points="219,502.3105,223,512.3105,227,502.3105,223,506.3105" style="stroke:#334155;stroke-width:1.0;"/><line style="stroke:#334155;stroke-width:1.0;" x1="223" x2="223" y1="1106.5273" y2="1126.5273"/><polygon fill="#334155" points="219,1116.5273,223,1126.5273,227,1116.5273,223,1120.5273" style="stroke:#334155;stroke-width:1.0;"/><line style="stroke:#334155;stroke-width:1.0;" x1="418.5" x2="418.5" y1="715.6621" y2="735.6621"/><polygon fill="#334155" points="414.5,725.6621,418.5,735.6621,422.5,725.6621,418.5,729.6621" style="stroke:#334155;stroke-width:1.0;"/><line style="stroke:#334155;stroke-width:1.0;" x1="418.5" x2="418.5" y1="994.8516" y2="1014.8516"/><polygon fill="#334155" points="414.5,1004.8516,418.5,1014.8516,422.5,1004.8516,418.5,1008.8516" style="stroke:#334155;stroke-width:1.0;"/><line style="stroke:#334155;stroke-width:1.0;" x1="85" x2="85" y1="268.959" y2="273.959"/><line style="stroke:#334155;stroke-width:1.0;" x1="85" x2="223" y1="273.959" y2="273.959"/><line style="stroke:#334155;stroke-width:1.0;" x1="223" x2="223" y1="273.959" y2="288.959"/><polygon fill="#334155" points="219,278.959,223,288.959,227,278.959,223,282.959" style="stroke:#334155;stroke-width:1.0;"/><line style="stroke:#334155;stroke-width:1.0;" x1="223" x2="223" y1="380.6348" y2="385.6348"/><line style="stroke:#334155;stroke-width:1.0;" x1="223" x2="418.5" y1="385.6348" y2="385.6348"/><line style="stroke:#334155;stroke-width:1.0;" x1="418.5" x2="418.5" y1="385.6348" y2="400.6348"/><polygon fill="#334155" points="414.5,390.6348,418.5,400.6348,422.5,390.6348,418.5,394.6348" style="stroke:#334155;stroke-width:1.0;"/><line style="stroke:#334155;stroke-width:1.0;" x1="418.5" x2="418.5" y1="436.4727" y2="441.4727"/><line style="stroke:#334155;stroke-width:1.0;" x1="418.5" x2="223" y1="441.4727" y2="441.4727"/><line style="stroke:#334155;stroke-width:1.0;" x1="223" x2="223" y1="441.4727" y2="456.4727"/><polygon fill="#334155" points="219,446.4727,223,456.4727,227,446.4727,223,450.4727" style="stroke:#334155;stroke-width:1.0;"/><line style="stroke:#334155;stroke-width:1.0;" x1="223" x2="223" y1="548.1484" y2="553.1484"/><line style="stroke:#334155;stroke-width:1.0;" x1="223" x2="418.5" y1="553.1484" y2="553.1484"/><line style="stroke:#334155;stroke-width:1.0;" x1="418.5" x2="418.5" y1="553.1484" y2="568.1484"/><polygon fill="#334155" points="414.5,558.1484,418.5,568.1484,422.5,558.1484,418.5,562.1484" style="stroke:#334155;stroke-width:1.0;"/><line style="stroke:#334155;stroke-width:1.0;" x1="418.5" x2="418.5" y1="603.9863" y2="608.9863"/><line style="stroke:#334155;stroke-width:1.0;" x1="418.5" x2="223" y1="608.9863" y2="608.9863"/><line style="stroke:#334155;stroke-width:1.0;" x1="223" x2="223" y1="608.9863" y2="623.9863"/><polygon fill="#334155" points="219,613.9863,223,623.9863,227,613.9863,223,617.9863" style="stroke:#334155;stroke-width:1.0;"/><line style="stroke:#334155;stroke-width:1.0;" x1="223" x2="223" y1="659.8242" y2="664.8242"/><line style="stroke:#334155;stroke-width:1.0;" x1="223" x2="418.5" y1="664.8242" y2="664.8242"/><line style="stroke:#334155;stroke-width:1.0;" x1="418.5" x2="418.5" y1="664.8242" y2="679.8242"/><polygon fill="#334155" points="414.5,669.8242,418.5,679.8242,422.5,669.8242,418.5,673.8242" style="stroke:#334155;stroke-width:1.0;"/><line style="stroke:#334155;stroke-width:1.0;" x1="418.5" x2="418.5" y1="771.5" y2="776.5"/><line style="stroke:#334155;stroke-width:1.0;" x1="418.5" x2="85" y1="776.5" y2="776.5"/><line style="stroke:#334155;stroke-width:1.0;" x1="85" x2="85" y1="776.5" y2="791.5"/><polygon fill="#334155" points="81,781.5,85,791.5,89,781.5,85,785.5" style="stroke:#334155;stroke-width:1.0;"/><line style="stroke:#334155;stroke-width:1.0;" x1="85" x2="85" y1="939.0137" y2="944.0137"/><line style="stroke:#334155;stroke-width:1.0;" x1="85" x2="418.5" y1="944.0137" y2="944.0137"/><line style="stroke:#334155;stroke-width:1.0;" x1="418.5" x2="418.5" y1="944.0137" y2="959.0137"/><polygon fill="#334155" points="414.5,949.0137,418.5,959.0137,422.5,949.0137,418.5,953.0137" style="stroke:#334155;stroke-width:1.0;"/><line style="stroke:#334155;stroke-width:1.0;" x1="418.5" x2="418.5" y1="1050.6895" y2="1055.6895"/><line style="stroke:#334155;stroke-width:1.0;" x1="418.5" x2="223" y1="1055.6895" y2="1055.6895"/><line style="stroke:#334155;stroke-width:1.0;" x1="223" x2="223" y1="1055.6895" y2="1070.6895"/><polygon fill="#334155" points="219,1060.6895,223,1070.6895,227,1060.6895,223,1064.6895" style="stroke:#334155;stroke-width:1.0;"/><text fill="#000000" font-family="Microsoft YaHei" font-size="18" lengthAdjust="spacing" textLength="36" x="66" y="71.7344">&#25945;&#24072;</text><text fill="#000000" font-family="Microsoft YaHei" font-size="18" lengthAdjust="spacing" textLength="36" x="204" y="71.7344">&#23398;&#29983;</text><text fill="#000000" font-family="Microsoft YaHei" font-size="18" lengthAdjust="spacing" textLength="36" x="399.5" y="71.7344">&#31995;&#32479;</text><!--SRC=[RLBTRX916BsVfvZK1p2cnHzwrLh_Bkg5rWklo1HswwQmGsOMYH4JcagxO5jeYgs4sePOi68MZ1WbKEtByCtkleM30-tIUBMxvvmzv-oPvQk6cIIC971CqqagRjsdflMO93GyjMX46ULKj_1pyb0pfX2_qF8N94RJXhc2THBdMe0XKSjuQLYly6k4yJo9hgumcZ9ZTscSCdnDlwqJFJfaA8jfR8JEt0g5RjwHw1nZD3q2fwTdReH2w0r2bc75DGoj8x-vvHyuxavRT3h-sXvK_o2K4UyhqBKpY5k4MIWCTXNwFIMUHM4_j-t-Rgb7uTJzvea4eRWBtVMn1cN0QRZbummAU-TLoDKL0VQ1LpkLQd5STm_VAT1hDyHwRj3T6NkXZDlfkttrSXcgHrTqyEkxECoBOcdGEt4BFqLsRIBGpvQa4zI-maR5TSgYPil0mVb7S3weX34Oo95IMHB7oNA4fvOJ1kS6DV5r1LXQCa9CdjROH8vmFi5PKTMu_EuBIr7z8VQ_1LiEkZtyzDdyugEbfNiBmn7odxtQbhVPXCAfrtuBzeQmzwMti4joRg_LKk1iu40cXXE5EkmMBZVDxy5PDaYfnIJbzYkmsLCcobJEA6-yjlEVpa6BOUS7J-OM_XKUhSIZb6aHfibBR7AHG3aeRliDUtYgTidjVvcL_n9D_WK0]--></g></svg>