<?xml version="1.0" encoding="us-ascii" standalone="no"?><svg xmlns="http://www.w3.org/2000/svg" xmlns:xlink="http://www.w3.org/1999/xlink" contentStyleType="text/css" height="937px" preserveAspectRatio="none" style="width:476px;height:937px;background:#FFFFFF;" version="1.1" viewBox="0 0 476 937" width="476px" zoomAndPan="magnify"><defs/><g><text fill="#000000" font-family="Microsoft YaHei" font-size="14" font-weight="bold" lengthAdjust="spacing" textLength="98" x="187.75" y="34.8135">&#20316;&#19994;&#38381;&#29615;&#27891;&#36947;&#22270;</text><rect fill="none" height="23.7568" style="stroke:none;stroke-width:1.0;" width="443.5" x="15" y="52.6885"/><ellipse cx="73" cy="91.4453" fill="#222222" rx="10" ry="10" style="stroke:#222222;stroke-width:1.0;"/><rect fill="#F8FAFC" height="35.8379" rx="12.5" ry="12.5" style="stroke:#475569;stroke-width:0.5;" width="68" x="39" y="121.4453"/><text fill="#000000" font-family="Microsoft YaHei" font-size="12" lengthAdjust="spacing" textLength="48" x="49" y="144.1426">&#21019;&#24314;&#20316;&#19994;</text><rect fill="#F8FAFC" height="35.8379" rx="12.5" ry="12.5" style="stroke:#475569;stroke-width:0.5;" width="68" x="39" y="177.2832"/><text fill="#000000" font-family="Microsoft YaHei" font-size="12" lengthAdjust="spacing" textLength="48" x="49" y="199.9805">&#21457;&#24067;&#20316;&#19994;</text><rect fill="#F8FAFC" height="35.8379" rx="12.5" ry="12.5" style="stroke:#475569;stroke-width:0.5;" width="92" x="27" y="568.1484"/><text fill="#000000" font-family="Microsoft YaHei" font-size="12" lengthAdjust="spacing" textLength="72" x="37" y="590.8457">&#26597;&#30475;&#25552;&#20132;&#21015;&#34920;</text><rect fill="#F8FAFC" height="35.8379" rx="12.5" ry="12.5" style="stroke:#475569;stroke-width:0.5;" width="92" x="27" y="623.9863"/><text fill="#000000" font-family="Microsoft YaHei" font-size="12" lengthAdjust="spacing" textLength="72" x="37" y="646.6836">&#25171;&#24320;&#25552;&#20132;&#35814;&#24773;</text><rect fill="#F8FAFC" height="35.8379" rx="12.5" ry="12.5" style="stroke:#475569;stroke-width:0.5;" width="104" x="21" y="679.8242"/><text fill="#000000" font-family="Microsoft YaHei" font-size="12" lengthAdjust="spacing" textLength="84" x="31" y="702.5215">&#25209;&#25913;&#24182;&#22635;&#20889;&#21453;&#39304;</text><line style="stroke:#000000;stroke-width:1.5;" x1="15" x2="15" y1="52.6885" y2="925.1758"/><rect fill="#F8FAFC" height="35.8379" rx="12.5" ry="12.5" style="stroke:#475569;stroke-width:0.5;" width="92" x="153" y="233.1211"/><text fill="#000000" font-family="Microsoft YaHei" font-size="12" lengthAdjust="spacing" textLength="72" x="163" y="255.8184">&#26597;&#30475;&#20316;&#19994;&#21015;&#34920;</text><rect fill="#F8FAFC" height="35.8379" rx="12.5" ry="12.5" style="stroke:#475569;stroke-width:0.5;" width="92" x="153" y="288.959"/><text fill="#000000" font-family="Microsoft YaHei" font-size="12" lengthAdjust="spacing" textLength="72" x="163" y="311.6563">&#25171;&#24320;&#20316;&#19994;&#35814;&#24773;</text><rect fill="#F8FAFC" height="35.8379" rx="12.5" ry="12.5" style="stroke:#475569;stroke-width:0.5;" width="128" x="135" y="344.7969"/><text fill="#000000" font-family="Microsoft YaHei" font-size="12" lengthAdjust="spacing" textLength="108" x="145" y="367.4941">&#22635;&#20889;&#31572;&#26696;&#25110;&#19978;&#20256;&#20869;&#23481;</text><rect fill="#F8FAFC" height="35.8379" rx="12.5" ry="12.5" style="stroke:#475569;stroke-width:0.5;" width="68" x="165" y="400.6348"/><text fill="#000000" font-family="Microsoft YaHei" font-size="12" lengthAdjust="spacing" textLength="48" x="175" y="423.332">&#25552;&#20132;&#20316;&#19994;</text><rect fill="#F8FAFC" height="35.8379" rx="12.5" ry="12.5" style="stroke:#475569;stroke-width:0.5;" width="128" x="135" y="847.3379"/><text fill="#000000" font-family="Microsoft YaHei" font-size="12" lengthAdjust="spacing" textLength="108" x="145" y="870.0352">&#26597;&#30475;&#20316;&#19994;&#21453;&#39304;&#19982;&#25104;&#32489;</text><ellipse cx="199" cy="914.1758" fill="none" rx="11" ry="11" style="stroke:#222222;stroke-width:1.0;"/><ellipse cx="199" cy="914.1758" fill="#222222" rx="6" ry="6" style="stroke:#222222;stroke-width:1.0;"/><line style="stroke:#000000;stroke-width:1.5;" x1="129" x2="129" y1="52.6885" y2="925.1758"/><rect fill="#F8FAFC" height="35.8379" rx="12.5" ry="12.5" style="stroke:#475569;stroke-width:0.5;" width="180" x="273" y="456.4727"/><text fill="#000000" font-family="Microsoft YaHei" font-size="12" lengthAdjust="spacing" textLength="160" x="283" y="479.1699">&#20889;&#20837; homework_submission</text><rect fill="#F8FAFC" height="35.8379" rx="12.5" ry="12.5" style="stroke:#475569;stroke-width:0.5;" width="174" x="276" y="512.3105"/><text fill="#000000" font-family="Microsoft YaHei" font-size="12" lengthAdjust="spacing" textLength="154" x="286" y="535.0078">&#29983;&#25104;&#25110;&#26356;&#26032; plagiarism_task</text><rect fill="#F8FAFC" height="35.8379" rx="12.5" ry="12.5" style="stroke:#475569;stroke-width:0.5;" width="128" x="299" y="735.6621"/><text fill="#000000" font-family="Microsoft YaHei" font-size="12" lengthAdjust="spacing" textLength="108" x="309" y="758.3594">&#26356;&#26032;&#25552;&#20132;&#29366;&#24577;&#19982;&#24471;&#20998;</text><rect fill="#F8FAFC" height="35.8379" rx="12.5" ry="12.5" style="stroke:#475569;stroke-width:0.5;" width="124" x="301" y="791.5"/><text fill="#000000" font-family="Microsoft YaHei" font-size="12" lengthAdjust="spacing" textLength="104" x="311" y="814.1973">&#20889;&#20837; score_record</text><line style="stroke:#000000;stroke-width:1.5;" x1="267" x2="267" y1="52.6885" y2="925.1758"/><line style="stroke:#000000;stroke-width:1.5;" x1="457" x2="457" y1="52.6885" y2="925.1758"/><line style="stroke:#334155;stroke-width:1.0;" x1="73" x2="73" y1="101.4453" y2="121.4453"/><polygon fill="#334155" points="69,111.4453,73,121.4453,77,111.4453,73,115.4453" style="stroke:#334155;stroke-width:1.0;"/><line style="stroke:#334155;stroke-width:1.0;" x1="73" x2="73" y1="157.2832" y2="177.2832"/><polygon fill="#334155" points="69,167.2832,73,177.2832,77,167.2832,73,171.2832" style="stroke:#334155;stroke-width:1.0;"/><line style="stroke:#334155;stroke-width:1.0;" x1="73" x2="73" y1="603.9863" y2="623.9863"/><polygon fill="#334155" points="69,613.9863,73,623.9863,77,613.9863,73,617.9863" style="stroke:#334155;stroke-width:1.0;"/><line style="stroke:#334155;stroke-width:1.0;" x1="73" x2="73" y1="659.8242" y2="679.8242"/><polygon fill="#334155" points="69,669.8242,73,679.8242,77,669.8242,73,673.8242" style="stroke:#334155;stroke-width:1.0;"/><line style="stroke:#334155;stroke-width:1.0;" x1="199" x2="199" y1="268.959" y2="288.959"/><polygon fill="#334155" points="195,278.959,199,288.959,203,278.959,199,282.959" style="stroke:#334155;stroke-width:1.0;"/><line style="stroke:#334155;stroke-width:1.0;" x1="199" x2="199" y1="324.7969" y2="344.7969"/><polygon fill="#334155" points="195,334.7969,199,344.7969,203,334.7969,199,338.7969" style="stroke:#334155;stroke-width:1.0;"/><line style="stroke:#334155;stroke-width:1.0;" x1="199" x2="199" y1="380.6348" y2="400.6348"/><polygon fill="#334155" points="195,390.6348,199,400.6348,203,390.6348,199,394.6348" style="stroke:#334155;stroke-width:1.0;"/><line style="stroke:#334155;stroke-width:1.0;" x1="199" x2="199" y1="883.1758" y2="903.1758"/><polygon fill="#334155" points="195,893.1758,199,903.1758,203,893.1758,199,897.1758" style="stroke:#334155;stroke-width:1.0;"/><line style="stroke:#334155;stroke-width:1.0;" x1="363" x2="363" y1="492.3105" y2="512.3105"/><polygon fill="#334155" points="359,502.3105,363,512.3105,367,502.3105,363,506.3105" style="stroke:#334155;stroke-width:1.0;"/><line style="stroke:#334155;stroke-width:1.0;" x1="363" x2="363" y1="771.5" y2="791.5"/><polygon fill="#334155" points="359,781.5,363,791.5,367,781.5,363,785.5" style="stroke:#334155;stroke-width:1.0;"/><line style="stroke:#334155;stroke-width:1.0;" x1="73" x2="73" y1="213.1211" y2="218.1211"/><line style="stroke:#334155;stroke-width:1.0;" x1="73" x2="199" y1="218.1211" y2="218.1211"/><line style="stroke:#334155;stroke-width:1.0;" x1="199" x2="199" y1="218.1211" y2="233.1211"/><polygon fill="#334155" points="195,223.1211,199,233.1211,203,223.1211,199,227.1211" style="stroke:#334155;stroke-width:1.0;"/><line style="stroke:#334155;stroke-width:1.0;" x1="199" x2="199" y1="436.4727" y2="441.4727"/><line style="stroke:#334155;stroke-width:1.0;" x1="199" x2="363" y1="441.4727" y2="441.4727"/><line style="stroke:#334155;stroke-width:1.0;" x1="363" x2="363" y1="441.4727" y2="456.4727"/><polygon fill="#334155" points="359,446.4727,363,456.4727,367,446.4727,363,450.4727" style="stroke:#334155;stroke-width:1.0;"/><line style="stroke:#334155;stroke-width:1.0;" x1="363" x2="363" y1="548.1484" y2="553.1484"/><line style="stroke:#334155;stroke-width:1.0;" x1="363" x2="73" y1="553.1484" y2="553.1484"/><line style="stroke:#334155;stroke-width:1.0;" x1="73" x2="73" y1="553.1484" y2="568.1484"/><polygon fill="#334155" points="69,558.1484,73,568.1484,77,558.1484,73,562.1484" style="stroke:#334155;stroke-width:1.0;"/><line style="stroke:#334155;stroke-width:1.0;" x1="73" x2="73" y1="715.6621" y2="720.6621"/><line style="stroke:#334155;stroke-width:1.0;" x1="73" x2="363" y1="720.6621" y2="720.6621"/><line style="stroke:#334155;stroke-width:1.0;" x1="363" x2="363" y1="720.6621" y2="735.6621"/><polygon fill="#334155" points="359,725.6621,363,735.6621,367,725.6621,363,729.6621" style="stroke:#334155;stroke-width:1.0;"/><line style="stroke:#334155;stroke-width:1.0;" x1="363" x2="363" y1="827.3379" y2="832.3379"/><line style="stroke:#334155;stroke-width:1.0;" x1="363" x2="199" y1="832.3379" y2="832.3379"/><line style="stroke:#334155;stroke-width:1.0;" x1="199" x2="199" y1="832.3379" y2="847.3379"/><polygon fill="#334155" points="195,837.3379,199,847.3379,203,837.3379,199,841.3379" style="stroke:#334155;stroke-width:1.0;"/><text fill="#000000" font-family="Microsoft YaHei" font-size="18" lengthAdjust="spacing" textLength="36" x="54" y="71.7344">&#25945;&#24072;</text><text fill="#000000" font-family="Microsoft YaHei" font-size="18" lengthAdjust="spacing" textLength="36" x="180" y="71.7344">&#23398;&#29983;</text><text fill="#000000" font-family="Microsoft YaHei" font-size="18" lengthAdjust="spacing" textLength="36" x="344" y="71.7344">&#31995;&#32479;</text><!--SRC=[TP3DIWCn58NtUOgWJo1Q_xfIGTpetbM9CvaQEZCfIMeHAoZICYfQnTgY5RIWHP6gK96fLPzcah5lOUhK-WEkGiwzvvxlNfuYRXenv40JMoXZYrdgYWNaO3WmJmn6ERK4N4Hpc0m0tk_boyYaMU8ceOLiZdzKa2782X6hS0r0E8sCL9BHZ6lEK9ioE6YDMyWokXNAJCnwwiXOB3OweTKfncYs9muFZmp5Oc0T0464ZM7mUXRufvrA8zo_LyrcP_D8Ljy0oAdZ4-bxES05OW9CIgygsyzHSrn_YuVIt_hwWfnirCFIUGvCglEhy6mtAaYlybwxrjrg-qY-R4JY-trTRUMx8sgtid0IDaggvYcl7FWxmSk5BEJbNQjhAHu4pvVV0M6p7RQx0TeZyrTmcJeuIragmJDB3k6SK5UxD8Fo3lGqLNrKvGUOjb6I84Quan28f-8_zkgHHZb_I2EnJwgsMwhKagsd25aMzpfrxnTK51VPmfqdjR4P-FlohIAzGhoFp0tAS89X_PZ_t-npk7RhFSBsJLpVdwO_0000]--></g></svg>