<?xml version="1.0" encoding="us-ascii" standalone="no"?><svg xmlns="http://www.w3.org/2000/svg" xmlns:xlink="http://www.w3.org/1999/xlink" contentStyleType="text/css" height="564px" preserveAspectRatio="none" style="width:811px;height:564px;background:#FFFFFF;" version="1.1" viewBox="0 0 811 564" width="811px" zoomAndPan="magnify"><defs/><g><text fill="#000000" font-family="Microsoft YaHei" font-size="14" font-weight="bold" lengthAdjust="spacing" textLength="168" x="322.5" y="29.8135">&#32479;&#19968;&#21709;&#24212;&#19982;&#24322;&#24120;&#22788;&#29702;&#27169;&#24335;&#22270;</text><rect fill="none" height="284.9375" style="stroke:#000000;stroke-width:1.5;" width="794" x="10" y="206.9058"/><line style="stroke:#181818;stroke-width:0.5;stroke-dasharray:5.0,5.0;" x1="56" x2="56" y1="96.4326" y2="508.8433"/><line style="stroke:#181818;stroke-width:0.5;stroke-dasharray:5.0,5.0;" x1="278" x2="278" y1="96.4326" y2="508.8433"/><line style="stroke:#181818;stroke-width:0.5;stroke-dasharray:5.0,5.0;" x1="383" x2="383" y1="96.4326" y2="508.8433"/><line style="stroke:#181818;stroke-width:0.5;stroke-dasharray:5.0,5.0;" x1="464" x2="464" y1="96.4326" y2="508.8433"/><line style="stroke:#181818;stroke-width:0.5;stroke-dasharray:5.0,5.0;" x1="594" x2="594" y1="96.4326" y2="508.8433"/><line style="stroke:#181818;stroke-width:0.5;stroke-dasharray:5.0,5.0;" x1="743" x2="743" y1="96.4326" y2="508.8433"/><rect fill="#E2E2F0" height="32.4775" rx="2.5" ry="2.5" style="stroke:#181818;stroke-width:0.5;" width="72" x="20" y="62.9551"/><text fill="#000000" font-family="Microsoft YaHei" font-size="14" lengthAdjust="spacing" textLength="58" x="27" y="84.7686">Vue &#39029;&#38754;</text><rect fill="#E2E2F0" height="32.4775" rx="2.5" ry="2.5" style="stroke:#181818;stroke-width:0.5;" width="72" x="20" y="507.8433"/><text fill="#000000" font-family="Microsoft YaHei" font-size="14" lengthAdjust="spacing" textLength="58" x="27" y="529.6567">Vue &#39029;&#38754;</text><rect fill="#E2E2F0" height="50.9551" rx="2.5" ry="2.5" style="stroke:#181818;stroke-width:0.5;" width="110" x="223" y="44.4775"/><text fill="#000000" font-family="Microsoft YaHei" font-size="14" lengthAdjust="spacing" textLength="64" x="246" y="66.291">request.ts</text><text fill="#000000" font-family="Microsoft YaHei" font-size="14" lengthAdjust="spacing" textLength="96" x="230" y="84.7686">Axios Instance</text><rect fill="#E2E2F0" height="50.9551" rx="2.5" ry="2.5" style="stroke:#181818;stroke-width:0.5;" width="110" x="223" y="507.8433"/><text fill="#000000" font-family="Microsoft YaHei" font-size="14" lengthAdjust="spacing" textLength="64" x="246" y="529.6567">request.ts</text><text fill="#000000" font-family="Microsoft YaHei" font-size="14" lengthAdjust="spacing" textLength="96" x="230" y="548.1343">Axios Instance</text><rect fill="#E2E2F0" height="32.4775" rx="2.5" ry="2.5" style="stroke:#181818;stroke-width:0.5;" width="81" x="343" y="62.9551"/><text fill="#000000" font-family="Microsoft YaHei" font-size="14" lengthAdjust="spacing" textLength="67" x="350" y="84.7686">Controller</text><rect fill="#E2E2F0" height="32.4775" rx="2.5" ry="2.5" style="stroke:#181818;stroke-width:0.5;" width="81" x="343" y="507.8433"/><text fill="#000000" font-family="Microsoft YaHei" font-size="14" lengthAdjust="spacing" textLength="67" x="350" y="529.6567">Controller</text><rect fill="#E2E2F0" height="32.4775" rx="2.5" ry="2.5" style="stroke:#181818;stroke-width:0.5;" width="61" x="434" y="62.9551"/><text fill="#000000" font-family="Microsoft YaHei" font-size="14" lengthAdjust="spacing" textLength="47" x="441" y="84.7686">Service</text><rect fill="#E2E2F0" height="32.4775" rx="2.5" ry="2.5" style="stroke:#181818;stroke-width:0.5;" width="61" x="434" y="507.8433"/><text fill="#000000" font-family="Microsoft YaHei" font-size="14" lengthAdjust="spacing" textLength="47" x="441" y="529.6567">Service</text><rect fill="#E2E2F0" height="32.4775" rx="2.5" ry="2.5" style="stroke:#181818;stroke-width:0.5;" width="178" x="505" y="62.9551"/><text fill="#000000" font-family="Microsoft YaHei" font-size="14" lengthAdjust="spacing" textLength="164" x="512" y="84.7686">GlobalExceptionHandler</text><rect fill="#E2E2F0" height="32.4775" rx="2.5" ry="2.5" style="stroke:#181818;stroke-width:0.5;" width="178" x="505" y="507.8433"/><text fill="#000000" font-family="Microsoft YaHei" font-size="14" lengthAdjust="spacing" textLength="164" x="512" y="529.6567">GlobalExceptionHandler</text><rect fill="#E2E2F0" height="32.4775" rx="2.5" ry="2.5" style="stroke:#181818;stroke-width:0.5;" width="101" x="693" y="62.9551"/><text fill="#000000" font-family="Microsoft YaHei" font-size="14" lengthAdjust="spacing" textLength="87" x="700" y="84.7686">ApiResponse</text><rect fill="#E2E2F0" height="32.4775" rx="2.5" ry="2.5" style="stroke:#181818;stroke-width:0.5;" width="101" x="693" y="507.8433"/><text fill="#000000" font-family="Microsoft YaHei" font-size="14" lengthAdjust="spacing" textLength="87" x="700" y="529.6567">ApiResponse</text><polygon fill="#334155" points="266,125.5903,276,129.5903,266,133.5903,270,129.5903" style="stroke:#334155;stroke-width:1.0;"/><line style="stroke:#334155;stroke-width:1.0;" x1="56" x2="272" y1="129.5903" y2="129.5903"/><text fill="#000000" font-family="Microsoft YaHei" font-size="13" lengthAdjust="spacing" textLength="52" x="63" y="124.188">&#21457;&#36215;&#35831;&#27714;</text><polygon fill="#334155" points="371.5,156.748,381.5,160.748,371.5,164.748,375.5,160.748" style="stroke:#334155;stroke-width:1.0;"/><line style="stroke:#334155;stroke-width:1.0;" x1="278" x2="377.5" y1="160.748" y2="160.748"/><text fill="#000000" font-family="Microsoft YaHei" font-size="13" lengthAdjust="spacing" textLength="63" x="285" y="155.3457">/api/v1/**</text><polygon fill="#334155" points="452.5,187.9058,462.5,191.9058,452.5,195.9058,456.5,191.9058" style="stroke:#334155;stroke-width:1.0;"/><line style="stroke:#334155;stroke-width:1.0;" x1="383.5" x2="458.5" y1="191.9058" y2="191.9058"/><text fill="#000000" font-family="Microsoft YaHei" font-size="13" lengthAdjust="spacing" textLength="52" x="390.5" y="186.5034">&#22788;&#29702;&#19994;&#21153;</text><path d="M10,206.9058 L72,206.9058 L72,216.0635 L62,226.0635 L10,226.0635 L10,206.9058 " fill="#EEEEEE" style="stroke:#000000;stroke-width:1.5;"/><rect fill="none" height="284.9375" style="stroke:#000000;stroke-width:1.5;" width="794" x="10" y="206.9058"/><text fill="#000000" font-family="Microsoft YaHei" font-size="13" font-weight="bold" lengthAdjust="spacing" textLength="17" x="25" y="221.6611">alt</text><text fill="#000000" font-family="Microsoft YaHei" font-size="11" font-weight="bold" lengthAdjust="spacing" textLength="52" x="87" y="220.5449">[&#27491;&#24120;&#36820;&#22238;]</text><polygon fill="#334155" points="394.5,245.2212,384.5,249.2212,394.5,253.2212,390.5,249.2212" style="stroke:#334155;stroke-width:1.0;"/><line style="stroke:#334155;stroke-width:1.0;stroke-dasharray:2.0,2.0;" x1="388.5" x2="463.5" y1="249.2212" y2="249.2212"/><text fill="#000000" font-family="Microsoft YaHei" font-size="13" lengthAdjust="spacing" textLength="52" x="400.5" y="243.8188">&#19994;&#21153;&#32467;&#26524;</text><polygon fill="#334155" points="731.5,276.3789,741.5,280.3789,731.5,284.3789,735.5,280.3789" style="stroke:#334155;stroke-width:1.0;"/><line style="stroke:#334155;stroke-width:1.0;" x1="383.5" x2="737.5" y1="280.3789" y2="280.3789"/><text fill="#000000" font-family="Microsoft YaHei" font-size="13" lengthAdjust="spacing" textLength="131" x="390.5" y="274.9766">ApiResponse.ok(data)</text><polygon fill="#334155" points="289,307.5366,279,311.5366,289,315.5366,285,311.5366" style="stroke:#334155;stroke-width:1.0;"/><line style="stroke:#334155;stroke-width:1.0;stroke-dasharray:2.0,2.0;" x1="283" x2="742.5" y1="311.5366" y2="311.5366"/><text fill="#000000" font-family="Microsoft YaHei" font-size="13" lengthAdjust="spacing" textLength="212" x="295" y="306.1343">{ code, message, data, timestamp }</text><polygon fill="#334155" points="67,338.6943,57,342.6943,67,346.6943,63,342.6943" style="stroke:#334155;stroke-width:1.0;"/><line style="stroke:#334155;stroke-width:1.0;stroke-dasharray:2.0,2.0;" x1="61" x2="277" y1="342.6943" y2="342.6943"/><text fill="#000000" font-family="Microsoft YaHei" font-size="13" lengthAdjust="spacing" textLength="48" x="73" y="337.292">res.data</text><line style="stroke:#000000;stroke-width:1.0;stroke-dasharray:2.0,2.0;" x1="10" x2="804" y1="351.6943" y2="351.6943"/><text fill="#000000" font-family="Microsoft YaHei" font-size="11" font-weight="bold" lengthAdjust="spacing" textLength="162" x="15" y="363.3335">[&#19994;&#21153;&#24322;&#24120; / &#26435;&#38480;&#24322;&#24120; / &#26657;&#39564;&#24322;&#24120;]</text><polygon fill="#334155" points="582,386.3701,592,390.3701,582,394.3701,586,390.3701" style="stroke:#334155;stroke-width:1.0;"/><line style="stroke:#334155;stroke-width:1.0;stroke-dasharray:2.0,2.0;" x1="464.5" x2="588" y1="390.3701" y2="390.3701"/><text fill="#000000" font-family="Microsoft YaHei" font-size="13" lengthAdjust="spacing" textLength="100" x="471.5" y="384.9678">throw Exception</text><polygon fill="#334155" points="731.5,417.5278,741.5,421.5278,731.5,425.5278,735.5,421.5278" style="stroke:#334155;stroke-width:1.0;"/><line style="stroke:#334155;stroke-width:1.0;" x1="594" x2="737.5" y1="421.5278" y2="421.5278"/><text fill="#000000" font-family="Microsoft YaHei" font-size="13" lengthAdjust="spacing" textLength="111" x="601" y="416.1255">ApiResponse.of(...)</text><polygon fill="#334155" points="289,448.6855,279,452.6855,289,456.6855,285,452.6855" style="stroke:#334155;stroke-width:1.0;"/><line style="stroke:#334155;stroke-width:1.0;stroke-dasharray:2.0,2.0;" x1="283" x2="742.5" y1="452.6855" y2="452.6855"/><text fill="#000000" font-family="Microsoft YaHei" font-size="13" lengthAdjust="spacing" textLength="59" x="295" y="447.2832">&#38750; 0 code</text><polygon fill="#334155" points="67,479.8433,57,483.8433,67,487.8433,63,483.8433" style="stroke:#334155;stroke-width:1.0;"/><line style="stroke:#334155;stroke-width:1.0;stroke-dasharray:2.0,2.0;" x1="61" x2="277" y1="483.8433" y2="483.8433"/><text fill="#000000" font-family="Microsoft YaHei" font-size="13" lengthAdjust="spacing" textLength="198" x="73" y="478.4409">&#24377;&#20986;&#38169;&#35823;&#20449;&#24687; / 401 &#26102;&#22238;&#21040;&#30331;&#24405;&#39029;</text><!--SRC=[VP91QnD15CVlyoaUyL9BisbeU-b124Mj1prKA0XUnjr9EtGpiyvCce88MaL5r5OQaLWJNVKWWaGFjMiJxPV9RBBVmibcDyaMwUszcTzxy__FUtABCWyBN067b77LLLSuKpTmXK3kEhK5bxoiu1PU9JI7v9YLczZXDSese8nTIQPkIaBmsWftkO0B2mkBnQKbX1HLBe5-vqClUA0FNkgJUYzufRkxEWZqbyVz_IVXLrztz_JXNuHC5qLjwc6c8BTU9H3vHr7pKmwmX7LAQbb0aBjL8fMbv6rMsg5SmZKc5MOsYGlMHjVPcXLZK73N9I9c9caMkqd4Datw974MkEhoEzYzl6CJJr7ELZ5pqfv9dELB7bqZqkDCfk962K93Nv2_bCg5PT1xhmT7nuFsSVXp5wN7XfY8DL01UxImNIpCpgAfSqCbSeTzuk_j1U_qSnyXx2e8ltystpuuhUl35e8ncZ_RV5JJxno4hVU6opwGIZVSb2kBRyquME6BXXyJ-OolUs1pXyn1XKY9DqmmvET0KNEWSCM3-t5jujUKnb-p3898QuWYOhOjqJPQ82X0s7mKDVOdwKS_-lPYb9vncCp5D5IRParXF3p3fNVds2lFM9PrZhkesOBvsE7_NUZkR_tq9Aet1krsxzGF7xQDtCNv8eHlVvbnw6S_-esE_lF6h3mYp47_0000]--></g></svg>